<svg width="220" height="220" viewBox="0 0 220 220" fill="none" xmlns="http://www.w3.org/2000/svg">
<mask id="path-1-outside-1" maskUnits="userSpaceOnUse" x="3.29686" y="32.3458" width="213" height="173" fill="black">
<rect fill="white" x="3.29686" y="32.3458" width="213" height="173"/>
<path fill-rule="evenodd" clip-rule="evenodd" d="M82.6114 159.713C82.6114 159.713 77.3401 159.246 67.3777 155.573C73.0105 156.491 76.5922 156.147 76.5922 156.147C90.7966 138.216 104.623 128.034 113.905 121.197C119.217 117.285 123.041 114.469 124.596 111.924C124.759 112.1 124.923 112.278 125.089 112.455C134.571 137.411 146.071 157.013 146.071 157.013C150.798 156.604 154.937 156.12 158.795 155.476C145.988 158.191 139.513 157.654 139.513 157.654L149.346 182.197C170.625 185.078 182.565 184.354 203.879 178.122L196.235 142.285C196.235 142.285 192.779 145.25 178.71 149.945C181.946 148.686 185.375 147.206 189.18 145.454C189.18 145.454 188.992 135.963 189.919 114.459C190.327 104.983 192.454 96.9256 194.143 90.5288L194.143 90.5285C196.286 82.4089 197.723 76.9649 194.043 74.6914C186.177 69.8317 175.453 100.535 175.453 100.535L175.083 87.4853L175.138 86.4623C175.982 70.721 177.079 50.2663 171.202 50.1854C167.258 50.1311 165.775 59.1215 163.954 70.1604C163.002 75.9308 161.958 82.2609 160.421 88.1514C157.326 72.6003 149.466 42.1001 142.794 44.5081C136.122 46.9161 142.154 78.4096 146.003 93.8554C142.052 88.3205 138.468 80.6075 135.202 73.5808C130.373 63.1889 126.241 54.2983 122.652 56.1753C116.637 59.3214 124.229 84.5485 133.72 98.3388C127.587 94.3917 122.42 89.8097 118.228 86.0928L118.228 86.0928C116.741 84.7744 115.377 83.5648 114.137 82.531C117.599 75.0199 119.258 68.7163 116.839 66.6588C112.571 63.0285 99.1761 79.054 92.0743 91.8667C99.652 77.4203 111.189 52.0007 104.929 49.7534C98.3123 47.3784 83.0259 75.2401 76.2097 89.4678C76.655 88.4358 77.1409 87.3192 77.6557 86.1364C83.8436 71.917 94.1954 48.1292 88.1198 46.8399C82.0316 45.5479 71.88 67.8344 65.4746 81.8967L64.9521 83.0435C69.6091 72.4632 74.9479 54.7749 71.0388 53.858C66.8588 52.8775 57.0101 65.4141 48.4885 90.4624C39.967 115.511 36.3687 137.745 36.3687 137.745C36.3687 137.745 37.3559 139.7 39.9523 142.371C31.8048 137.544 29.8105 135.13 29.8105 135.13L16.2969 168.839C23.7944 172.329 29.5222 176.514 34.8862 180.433C43.7368 186.899 51.597 192.642 64.7828 193.346L82.6114 159.713ZM109.255 91.9417C111.386 95.6964 114.532 100.208 118.862 105.407C109.423 106.264 93.1257 116.367 93.1257 116.367L102.442 102.971C104.752 99.5118 107.104 95.7278 109.255 91.9417Z"/>
</mask>
<path d="M67.3777 155.573L63.2264 166.832C57.4255 164.693 54.1991 158.497 55.773 152.518C57.3468 146.539 63.2057 142.734 69.3078 143.729L67.3777 155.573ZM82.6114 159.713L83.6702 147.759C87.6759 148.114 91.2375 150.452 93.1567 153.986C95.0758 157.52 95.0973 161.78 93.2138 165.333L82.6114 159.713ZM76.5922 156.147L85.9983 163.598C83.9712 166.157 80.989 167.78 77.7394 168.092L76.5922 156.147ZM113.905 121.197L106.789 111.535H106.789L113.905 121.197ZM124.596 111.924L114.356 105.668C116.317 102.458 119.669 100.353 123.412 99.9824C127.155 99.6115 130.856 101.017 133.409 103.779L124.596 111.924ZM125.089 112.455L133.872 104.278C134.929 105.414 135.755 106.743 136.306 108.193L125.089 112.455ZM146.071 157.013L147.105 168.968C142.493 169.367 138.063 167.078 135.721 163.085L146.071 157.013ZM158.795 155.476L156.819 143.64C163.256 142.566 169.371 146.832 170.585 153.243C171.8 159.655 167.667 165.862 161.284 167.215L158.795 155.476ZM139.513 157.654L128.374 162.118C126.827 158.257 127.389 153.87 129.861 150.524C132.332 147.179 136.36 145.352 140.505 145.695L139.513 157.654ZM149.346 182.197L147.736 194.088C143.454 193.508 139.814 190.671 138.207 186.66L149.346 182.197ZM203.879 178.122L215.615 175.618C216.926 181.762 213.277 187.877 207.247 189.64L203.879 178.122ZM196.235 142.285L188.42 133.178C191.634 130.42 196.063 129.561 200.075 130.916C204.087 132.271 207.087 135.64 207.971 139.781L196.235 142.285ZM178.71 149.945L182.508 161.328C176.33 163.389 169.635 160.146 167.423 154.02C165.211 147.894 168.29 141.121 174.36 138.761L178.71 149.945ZM189.18 145.454L201.177 145.217C201.272 149.987 198.531 154.36 194.198 156.355L189.18 145.454ZM189.919 114.459L177.93 113.942V113.942L189.919 114.459ZM194.143 90.5288L205.857 93.1319C205.823 93.2858 205.785 93.4389 205.745 93.5913L194.143 90.5288ZM194.143 90.5285L182.428 87.9254C182.463 87.7715 182.5 87.6184 182.54 87.466L194.143 90.5285ZM194.043 74.6914L187.736 84.9003H187.736L194.043 74.6914ZM175.453 100.535L186.782 104.492C184.873 109.957 179.335 113.281 173.614 112.394C167.894 111.507 163.622 106.662 163.458 100.876L175.453 100.535ZM175.083 87.4853L163.088 87.8255C163.078 87.498 163.082 87.1703 163.1 86.8431L175.083 87.4853ZM175.138 86.4623L163.155 85.8201L163.155 85.8195L175.138 86.4623ZM171.202 50.1854L171.037 62.1842H171.037L171.202 50.1854ZM163.954 70.1604L152.114 68.2072V68.2072L163.954 70.1604ZM160.421 88.1514L172.033 91.18C170.622 96.5912 165.66 100.31 160.07 100.146C154.48 99.9824 149.744 95.979 148.652 90.4944L160.421 88.1514ZM142.794 44.5081L146.868 55.7954H146.868L142.794 44.5081ZM146.003 93.8554L157.647 90.9534C159.041 96.5455 156.262 102.339 151.029 104.752C145.795 107.166 139.585 105.518 136.237 100.828L146.003 93.8554ZM135.202 73.5808L146.084 68.5235L135.202 73.5808ZM122.652 56.1753L128.214 66.8086L128.214 66.8086L122.652 56.1753ZM133.72 98.3388L143.605 91.5354C146.846 96.2448 146.315 102.587 142.336 106.692C138.356 110.796 132.033 111.524 127.226 108.43L133.72 98.3388ZM118.228 86.0928L110.266 95.0711C110.087 94.912 109.912 94.7476 109.743 94.5781L118.228 86.0928ZM118.228 86.0928L126.19 77.1145C126.369 77.2736 126.544 77.438 126.713 77.6075L118.228 86.0928ZM114.137 82.531L106.456 91.7506C102.286 88.2766 100.967 82.4365 103.239 77.5077L114.137 82.531ZM116.839 66.6588L124.613 57.5178L124.613 57.5179L116.839 66.6588ZM92.0743 91.8667L102.57 97.6841C99.3832 103.434 92.1639 105.549 86.3782 102.429C80.5924 99.3082 78.3941 92.1138 81.4475 86.2925L92.0743 91.8667ZM104.929 49.7534L108.983 38.4591L108.983 38.4591L104.929 49.7534ZM76.2097 89.4678L87.0319 94.6524C84.2084 100.546 77.1877 103.097 71.2394 100.39C65.2912 97.6833 62.6026 90.7143 65.1916 84.7138L76.2097 89.4678ZM77.6557 86.1364L66.6524 81.348V81.348L77.6557 86.1364ZM88.1198 46.8399L90.6109 35.1013H90.6109L88.1198 46.8399ZM65.4746 81.8967L76.3951 86.871L76.3946 86.8721L65.4746 81.8967ZM64.9521 83.0435L75.8721 88.0189C73.1368 94.0223 66.0681 96.6919 60.0472 93.9952C54.0262 91.2986 51.3112 84.2474 53.969 78.2091L64.9521 83.0435ZM71.0388 53.858L68.2984 65.5409L68.2984 65.5408L71.0388 53.858ZM48.4885 90.4624L37.128 86.5975L48.4885 90.4624ZM36.3687 137.745L25.657 143.154C24.5152 140.893 24.1182 138.328 24.5228 135.828L36.3687 137.745ZM39.9523 142.371L48.5578 134.008C52.75 138.322 53.1008 145.073 49.3783 149.798C45.6558 154.523 39.0102 155.762 33.8352 152.695L39.9523 142.371ZM29.8105 135.13L18.6722 130.665C20.2479 126.735 23.7784 123.926 27.9623 123.274C32.1462 122.621 36.3641 124.223 39.0613 127.487L29.8105 135.13ZM16.2969 168.839L11.2329 179.718C5.4542 177.028 2.78676 170.29 5.15859 164.374L16.2969 168.839ZM34.8862 180.433L41.9654 170.743H41.9654L34.8862 180.433ZM64.7828 193.346L75.3853 198.966C73.1965 203.095 68.8097 205.578 64.1431 205.329L64.7828 193.346ZM109.255 91.9417L98.8224 86.0126C100.956 82.2587 104.941 79.9404 109.259 79.9417C113.577 79.9431 117.561 82.2639 119.692 86.0191L109.255 91.9417ZM118.862 105.407L128.083 97.7261C130.937 101.153 131.656 105.88 129.948 110C128.241 114.121 124.389 116.954 119.948 117.357L118.862 105.407ZM93.1257 116.367L99.4485 126.566C94.6125 129.564 88.3359 128.754 84.4199 124.626C80.5039 120.498 80.0252 114.187 83.2738 109.516L93.1257 116.367ZM102.442 102.971L112.421 109.635C112.379 109.698 112.337 109.76 112.294 109.822L102.442 102.971ZM71.5289 144.313C76.0189 145.969 79.3195 146.853 81.361 147.312C82.3824 147.541 83.091 147.665 83.478 147.725C83.6717 147.755 83.7852 147.77 83.8175 147.774C83.8336 147.776 83.8295 147.775 83.805 147.772C83.7928 147.771 83.7754 147.769 83.753 147.767C83.7417 147.766 83.7292 147.765 83.7154 147.764C83.7085 147.763 83.7013 147.762 83.6938 147.762C83.69 147.761 83.6862 147.761 83.6822 147.761C83.6803 147.76 83.6773 147.76 83.6763 147.76C83.6733 147.76 83.6702 147.759 82.6114 159.713C81.5525 171.666 81.5494 171.666 81.5463 171.665C81.5453 171.665 81.5421 171.665 81.54 171.665C81.5358 171.664 81.5314 171.664 81.527 171.664C81.5182 171.663 81.5091 171.662 81.4996 171.661C81.4807 171.659 81.4604 171.657 81.4389 171.655C81.3959 171.651 81.3477 171.646 81.2945 171.641C81.1879 171.629 81.0608 171.615 80.9134 171.597C80.6185 171.561 80.2423 171.511 79.7861 171.439C78.8735 171.297 77.6416 171.075 76.0998 170.728C73.0151 170.035 68.6989 168.849 63.2264 166.832L71.5289 144.313ZM76.5922 156.147C77.7394 168.092 77.737 168.092 77.7346 168.092C77.7338 168.092 77.7314 168.092 77.7298 168.093C77.7265 168.093 77.7232 168.093 77.7198 168.093C77.7131 168.094 77.7061 168.095 77.6989 168.095C77.6845 168.097 77.6692 168.098 77.653 168.1C77.6206 168.103 77.5845 168.106 77.5448 168.109C77.4654 168.116 77.3716 168.123 77.2638 168.13C77.0482 168.145 76.7762 168.162 76.4511 168.175C75.801 168.203 74.9361 168.221 73.8816 168.202C71.7754 168.164 68.8942 167.978 65.4475 167.416L69.3078 143.729C71.494 144.085 73.2201 144.186 74.313 144.206C74.858 144.216 75.2405 144.205 75.4381 144.197C75.5367 144.192 75.5886 144.189 75.5909 144.189C75.592 144.189 75.5807 144.189 75.5565 144.191C75.5444 144.192 75.5291 144.194 75.5106 144.195C75.5013 144.196 75.4912 144.197 75.4803 144.198C75.4749 144.199 75.4692 144.199 75.4633 144.2C75.4604 144.2 75.4574 144.2 75.4544 144.201C75.4529 144.201 75.4506 144.201 75.4498 144.201C75.4475 144.201 75.4451 144.202 76.5922 156.147ZM121.021 130.86C111.919 137.563 99.1677 146.975 85.9983 163.598L67.1862 148.695C82.4256 129.458 97.327 118.504 106.789 111.535L121.021 130.86ZM134.836 118.18C132.98 121.218 130.348 123.595 128.339 125.268C126.19 127.059 123.58 128.975 121.021 130.86L106.789 111.535C109.543 109.507 111.5 108.059 112.979 106.827C114.599 105.478 114.657 105.175 114.356 105.668L134.836 118.18ZM133.409 103.779C133.562 103.945 133.716 104.111 133.872 104.278L116.306 120.632C116.131 120.444 115.956 120.256 115.783 120.069L133.409 103.779ZM136.306 108.193C140.856 120.168 145.912 130.909 149.842 138.672C151.802 142.544 153.47 145.651 154.638 147.773C155.222 148.834 155.68 149.646 155.986 150.184C156.139 150.452 156.254 150.652 156.328 150.779C156.365 150.843 156.391 150.889 156.407 150.916C156.415 150.929 156.42 150.938 156.422 150.942C156.423 150.944 156.424 150.945 156.424 150.945C156.424 150.945 156.424 150.944 156.423 150.944C156.423 150.943 156.422 150.942 156.422 150.942C156.422 150.941 156.421 150.941 146.071 157.013C135.721 163.085 135.72 163.084 135.72 163.083C135.719 163.083 135.719 163.081 135.718 163.081C135.717 163.079 135.716 163.076 135.714 163.074C135.711 163.069 135.708 163.063 135.703 163.055C135.695 163.04 135.683 163.021 135.669 162.996C135.641 162.948 135.601 162.88 135.552 162.794C135.452 162.622 135.311 162.376 135.131 162.06C134.771 161.428 134.256 160.515 133.614 159.347C132.329 157.014 130.53 153.661 128.43 149.513C124.239 141.236 118.803 129.698 113.871 116.718L136.306 108.193ZM145.037 145.058C149.562 144.666 153.368 144.216 156.819 143.64L160.77 167.312C156.506 168.024 152.034 168.542 147.105 168.968L145.037 145.058ZM161.284 167.215C154.32 168.692 148.922 169.317 145.114 169.559C143.211 169.68 141.708 169.706 140.607 169.695C140.057 169.69 139.607 169.675 139.259 169.659C139.086 169.651 138.937 169.643 138.814 169.635C138.752 169.631 138.697 169.627 138.648 169.623C138.624 169.621 138.601 169.62 138.58 169.618C138.569 169.617 138.559 169.616 138.549 169.616C138.544 169.615 138.539 169.615 138.535 169.614C138.532 169.614 138.529 169.614 138.528 169.614C138.524 169.614 138.521 169.613 139.513 157.654C140.505 145.695 140.501 145.695 140.498 145.695C140.497 145.695 140.494 145.695 140.492 145.694C140.487 145.694 140.483 145.694 140.479 145.693C140.471 145.693 140.463 145.692 140.455 145.691C140.44 145.69 140.427 145.689 140.415 145.688C140.392 145.687 140.375 145.685 140.363 145.685C140.341 145.683 140.345 145.684 140.373 145.685C140.429 145.688 140.586 145.694 140.842 145.696C141.356 145.701 142.272 145.692 143.588 145.608C146.219 145.44 150.463 144.976 156.306 143.737L161.284 167.215ZM150.652 153.191L160.485 177.734L138.207 186.66L128.374 162.118L150.652 153.191ZM150.956 170.305C170.615 172.967 180.857 172.351 200.512 166.604L207.247 189.64C184.273 196.357 170.635 197.189 147.736 194.088L150.956 170.305ZM192.143 180.625L184.499 144.788L207.971 139.781L215.615 175.618L192.143 180.625ZM196.235 142.285C204.049 151.392 204.043 151.396 204.038 151.401C204.036 151.403 204.03 151.407 204.027 151.411C204.019 151.417 204.012 151.423 204.005 151.429C203.99 151.442 203.974 151.455 203.959 151.468C203.928 151.494 203.897 151.52 203.865 151.546C203.801 151.6 203.733 151.654 203.662 151.711C203.521 151.823 203.366 151.942 203.196 152.068C202.857 152.318 202.458 152.596 201.987 152.901C201.047 153.508 199.806 154.231 198.17 155.06C194.909 156.711 189.963 158.84 182.508 161.328L174.911 138.562C181.526 136.355 185.342 134.654 187.326 133.649C188.312 133.149 188.814 132.838 188.963 132.742C189.036 132.695 189.016 132.705 188.921 132.775C188.873 132.81 188.807 132.861 188.722 132.928C188.68 132.961 188.634 132.998 188.584 133.04C188.558 133.061 188.532 133.083 188.505 133.106C188.491 133.117 188.478 133.129 188.463 133.141C188.456 133.147 188.449 133.153 188.442 133.159C188.439 133.162 188.433 133.167 188.431 133.168C188.426 133.173 188.42 133.178 196.235 142.285ZM174.36 138.761C177.308 137.614 180.506 136.237 184.161 134.554L194.198 156.355C190.244 158.175 186.584 159.758 183.059 161.129L174.36 138.761ZM189.18 145.454C177.182 145.691 177.182 145.69 177.182 145.69C177.182 145.689 177.182 145.688 177.182 145.688C177.182 145.686 177.182 145.685 177.182 145.683C177.182 145.68 177.182 145.676 177.182 145.671C177.181 145.662 177.181 145.651 177.181 145.637C177.181 145.609 177.18 145.573 177.179 145.527C177.178 145.434 177.176 145.304 177.174 145.136C177.17 144.801 177.167 144.312 177.165 143.666C177.162 142.373 177.168 140.45 177.203 137.857C177.274 132.672 177.462 124.805 177.93 113.942L201.908 114.976C201.449 125.618 201.268 133.248 201.201 138.184C201.167 140.652 201.162 142.446 201.165 143.605C201.166 144.185 201.17 144.605 201.173 144.872C201.174 145.006 201.176 145.101 201.176 145.158C201.177 145.187 201.177 145.206 201.177 145.216C201.177 145.221 201.177 145.223 201.177 145.224C201.177 145.224 201.177 145.223 201.177 145.222C201.177 145.222 201.177 145.221 201.177 145.22C201.177 145.22 201.177 145.219 201.177 145.219C201.177 145.218 201.177 145.217 189.18 145.454ZM177.93 113.942C178.4 103.03 180.857 93.8404 182.54 87.4663L205.745 93.5913C204.051 100.011 202.254 106.936 201.908 114.976L177.93 113.942ZM182.428 87.9256L182.428 87.9254L205.857 93.1317L205.857 93.1319L182.428 87.9256ZM182.54 87.466C183.091 85.378 183.52 83.747 183.84 82.3216C184.164 80.8743 184.275 80.0705 184.3 79.6651C184.328 79.2151 184.205 79.906 184.64 81.0978C184.878 81.75 185.264 82.4988 185.855 83.2306C186.449 83.9654 187.113 84.5154 187.736 84.9003L200.35 64.4825C207.759 69.0598 208.533 76.7061 208.253 81.1702C207.995 85.2797 206.693 89.9995 205.745 93.5911L182.54 87.466ZM187.736 84.9003C190.191 86.4174 193.027 86.4218 195.03 85.7045C196.468 85.1899 196.926 84.5224 196.468 84.9985C195.597 85.9042 194.159 88.02 192.452 91.3138C190.861 94.3833 189.434 97.6863 188.383 100.295C187.865 101.582 187.454 102.661 187.177 103.407C187.039 103.78 186.934 104.067 186.867 104.253C186.833 104.347 186.809 104.415 186.795 104.455C186.788 104.475 186.783 104.489 186.781 104.495C186.78 104.498 186.779 104.499 186.779 104.499C186.78 104.499 186.78 104.498 186.78 104.497C186.78 104.496 186.781 104.495 186.781 104.495C186.781 104.494 186.782 104.492 175.453 100.535C164.124 96.5787 164.125 96.577 164.125 96.5753C164.126 96.5745 164.126 96.5726 164.127 96.5711C164.128 96.5681 164.129 96.5647 164.13 96.5607C164.133 96.5528 164.137 96.5431 164.141 96.5315C164.149 96.5083 164.16 96.4777 164.173 96.44C164.2 96.3646 164.237 96.2607 164.284 96.1302C164.377 95.8693 164.511 95.5018 164.681 95.0441C165.021 94.1301 165.509 92.8483 166.12 91.3325C167.326 88.3365 169.071 84.2673 171.144 80.2684C173.101 76.4937 175.82 71.8447 179.171 68.3603C180.825 66.6413 183.412 64.3723 186.941 63.1087C191.037 61.6426 195.928 61.7505 200.35 64.4826L187.736 84.9003ZM163.458 100.876L163.088 87.8255L187.078 87.145L187.448 100.195L163.458 100.876ZM163.1 86.8431L163.155 85.8201L187.12 87.1045L187.066 88.1275L163.1 86.8431ZM163.155 85.8195C163.588 77.7541 164.023 69.39 163.705 63.0508C163.541 59.7583 163.207 58.0071 163.008 57.4001C162.905 57.0841 163.113 57.955 164.12 59.0895C165.388 60.517 167.788 62.1395 171.037 62.1842L171.367 38.1865C176.085 38.2515 179.737 40.5309 182.066 43.154C184.135 45.4841 185.215 48.0892 185.822 49.9482C187.045 53.6911 187.485 58.0526 187.675 61.8515C188.068 69.6952 187.532 79.4291 187.12 87.1051L163.155 85.8195ZM171.037 62.1842C175.442 62.2449 177.862 59.4937 178.416 58.7209C178.85 58.115 178.694 58.0751 178.271 59.4762C177.456 62.1796 176.755 66.2857 175.794 72.1135L152.114 68.2072C152.974 62.9962 153.925 57.0876 155.293 52.5497C155.962 50.3301 157.029 47.3628 158.908 44.7415C160.906 41.9533 164.99 38.0987 171.367 38.1865L171.037 62.1842ZM175.794 72.1135C174.859 77.7838 173.732 84.6653 172.033 91.18L148.81 85.1229C150.183 79.8566 151.146 74.0778 152.114 68.2072L175.794 72.1135ZM148.652 90.4944C147.16 82.9989 144.545 72.0613 141.6 63.4961C140.084 59.0858 138.731 56.0549 137.745 54.4742C137.205 53.6082 137.294 54.0305 138.217 54.7115C139.408 55.5902 142.739 57.2856 146.868 55.7954L138.72 33.2208C144.517 31.1285 149.553 33.2503 152.463 35.3968C155.105 37.3457 156.927 39.8772 158.11 41.775C160.571 45.7218 162.627 50.8364 164.297 55.6941C167.724 65.6648 170.587 77.7528 172.19 85.8085L148.652 90.4944ZM146.868 55.7954C150.526 54.4752 151.773 51.692 151.94 51.2904C152.144 50.7994 152 50.9133 151.893 52.1203C151.688 54.4391 151.827 58.1339 152.376 62.9298C153.45 72.3326 155.794 83.5186 157.647 90.9534L134.359 96.7575C132.363 88.7465 129.766 76.4628 128.531 65.6554C127.924 60.3462 127.566 54.7507 127.986 50.0046C128.192 47.6791 128.641 44.8168 129.777 42.0822C130.876 39.4371 133.394 35.143 138.72 33.2208L146.868 55.7954ZM136.237 100.828C131.503 94.197 127.439 85.3499 124.32 78.6381L146.084 68.5235C149.496 75.865 152.601 82.444 155.77 86.8831L136.237 100.828ZM124.32 78.6381C121.77 73.1519 119.896 69.176 118.329 66.7053C117.48 65.3681 117.409 65.6069 118.208 66.2116C118.702 66.5852 119.951 67.4181 121.9 67.7686C124.087 68.1618 126.331 67.7937 128.214 66.8086L117.091 45.542C123.574 42.1506 129.559 44.7047 132.688 47.0718C135.422 49.1403 137.358 51.8992 138.595 53.8491C141.198 57.9524 143.804 63.6177 146.084 68.5235L124.32 78.6381ZM128.214 66.8086C131.069 65.3153 132.095 62.9969 132.361 62.2223C132.612 61.4918 132.505 61.3109 132.509 62.0953C132.516 63.617 132.906 66.3448 133.936 70.0634C135.98 77.4446 139.746 85.9289 143.605 91.5354L123.835 105.142C118.202 96.9584 113.427 85.9341 110.806 76.4676C109.504 71.7624 108.531 66.7316 108.509 62.2074C108.499 59.9689 108.712 57.1932 109.662 54.427C110.627 51.6167 112.732 47.8218 117.091 45.542L128.214 66.8086ZM127.226 108.43C120.211 103.916 114.404 98.74 110.266 95.0711L126.19 77.1146C130.436 80.8795 134.962 84.8679 140.214 88.2479L127.226 108.43ZM109.743 94.5781L109.743 94.578L126.713 77.6075L126.714 77.6075L109.743 94.5781ZM110.266 95.071C108.741 93.7185 107.526 92.642 106.456 91.7506L121.818 73.3114C123.229 74.4875 124.742 75.8302 126.19 77.1145L110.266 95.071ZM124.613 57.5179C128.219 60.5845 129.452 64.5618 129.823 67.3936C130.186 70.1732 129.873 72.8057 129.468 74.8656C128.651 79.0158 126.915 83.475 125.035 87.5544L103.239 77.5077C104.821 74.0759 105.645 71.6277 105.919 70.234C106.059 69.522 105.923 69.7233 106.026 70.5076C106.135 71.344 106.668 73.7619 109.064 75.7997L124.613 57.5179ZM81.5788 86.0492C85.5499 78.8847 91.2251 70.8749 96.7119 64.946C99.3736 62.0699 102.563 59.0532 105.948 57.0018C107.612 55.9931 110.085 54.7437 113.097 54.3014C116.432 53.8118 120.844 54.312 124.613 57.5178L109.064 75.7997C111.767 78.098 114.827 78.3048 116.584 78.0468C118.019 77.8361 118.689 77.3433 118.387 77.5266C117.838 77.8594 116.435 78.9692 114.326 81.2472C110.273 85.6268 105.701 92.036 102.57 97.6841L81.5788 86.0492ZM108.983 38.4591C114.419 40.4105 117.026 44.8417 118.02 48.3103C118.91 51.4175 118.787 54.438 118.556 56.5538C118.077 60.9323 116.587 65.8546 114.977 70.3118C111.663 79.4889 106.603 90.0012 102.701 97.4408L81.4475 86.2925C85.1229 79.2858 89.621 69.8651 92.4042 62.1591C93.8433 58.1746 94.537 55.4178 94.6977 53.9466C94.7862 53.1375 94.596 53.6906 94.9486 54.921C95.4047 56.513 97.0032 59.6582 100.874 61.0478L108.983 38.4591ZM65.3876 84.2832C68.9239 76.9015 74.7019 65.8756 80.5883 56.8363C83.4795 52.3963 86.7453 47.8898 90.0716 44.5227C91.7011 42.8731 93.8607 40.962 96.4694 39.5839C98.9925 38.2511 103.661 36.5488 108.983 38.4591L100.874 61.0478C104.542 62.3643 107.285 61.0132 107.68 60.805C108.159 60.5515 107.986 60.5386 107.145 61.3894C105.532 63.023 103.309 65.9258 100.7 69.9329C95.585 77.7875 90.3117 87.8063 87.0319 94.6524L65.3876 84.2832ZM88.6589 90.9247C88.1424 92.1117 87.6643 93.2103 87.2279 94.2218L65.1916 84.7138C65.6457 83.6614 66.1395 82.5268 66.6524 81.348L88.6589 90.9247ZM90.6109 35.1013C96.3223 36.3133 99.6128 40.4816 100.969 44.279C102.1 47.4443 102.037 50.5311 101.879 52.4907C101.546 56.619 100.24 61.2836 98.8822 65.3996C96.0735 73.9115 91.6944 83.9495 88.6589 90.9247L66.6524 81.348C69.8049 74.1039 73.6956 65.1383 76.0909 57.8791C77.3347 54.1096 77.865 51.6968 77.9571 50.5579C78.0115 49.8839 77.8096 50.7896 78.3675 52.3517C79.1512 54.5459 81.4362 57.6888 85.6287 58.5785L90.6109 35.1013ZM54.5541 76.9225C57.6995 70.0172 62.0724 60.3933 66.4995 52.6528C68.6754 48.8483 71.2147 44.8665 73.9802 41.7829C75.3501 40.2555 77.218 38.4426 79.5787 37.0544C81.9439 35.6636 85.8789 34.0971 90.6109 35.1013L85.6287 58.5785C88.8386 59.2596 91.1246 58.107 91.7442 57.7426C92.3594 57.3808 92.3854 57.2069 91.8473 57.8069C90.7969 58.9781 89.2565 61.2047 87.3328 64.5681C83.5607 71.1634 79.6551 79.714 76.3951 86.871L54.5541 76.9225ZM54.0322 78.0681L54.5546 76.9214L76.3946 86.8721L75.8721 88.0189L54.0322 78.0681ZM73.7792 42.1751C79.5612 43.5313 82.3023 47.9586 83.3452 50.7779C84.3084 53.3817 84.4099 55.8907 84.3909 57.462C84.3508 60.788 83.6473 64.4649 82.8664 67.6687C81.2481 74.3079 78.5034 82.0431 75.9353 87.8778L53.969 78.2091C56.0578 73.4635 58.311 67.0645 59.5491 61.9852C60.1963 59.3298 60.3857 57.7514 60.3927 57.1724C60.3973 56.7911 60.3108 57.6852 60.836 59.1048C61.4409 60.7398 63.4936 64.4138 68.2984 65.5409L73.7792 42.1751ZM37.128 86.5975C41.6149 73.4086 46.6092 63.02 51.3732 55.7941C53.7172 52.239 56.2975 49.0005 59.0792 46.5833C60.4678 45.3767 62.2642 44.0595 64.4395 43.1149C66.584 42.1837 69.9232 41.2706 73.7792 42.1751L68.2984 65.5408C71.1094 66.2002 73.2264 65.4644 73.999 65.1289C74.8023 64.7801 75.0769 64.4772 74.8212 64.6993C74.3143 65.1398 73.1162 66.4172 71.4103 69.0046C68.0746 74.064 63.8837 82.4679 59.8491 94.3273L37.128 86.5975ZM36.3687 137.745C24.5228 135.828 24.523 135.827 24.5232 135.825C24.5233 135.825 24.5236 135.823 24.5237 135.822C24.5241 135.82 24.5245 135.818 24.525 135.815C24.5259 135.809 24.5271 135.802 24.5284 135.793C24.5312 135.777 24.5349 135.754 24.5394 135.727C24.5485 135.671 24.5613 135.595 24.5776 135.498C24.6103 135.303 24.6576 135.026 24.7198 134.671C24.8443 133.96 25.0284 132.937 25.2751 131.639C25.7681 129.045 26.512 125.346 27.5285 120.85C29.5568 111.88 32.6939 99.6311 37.128 86.5975L59.8491 94.3273C55.7617 106.342 52.8389 117.735 50.9376 126.143C49.9894 130.337 49.3011 133.763 48.8531 136.12C48.6293 137.298 48.4657 138.207 48.3601 138.811C48.3073 139.112 48.269 139.337 48.2448 139.481C48.2327 139.552 48.2242 139.604 48.2192 139.634C48.2167 139.649 48.215 139.659 48.2143 139.664C48.2139 139.666 48.2137 139.667 48.2138 139.667C48.2138 139.667 48.2139 139.666 48.214 139.666C48.2141 139.665 48.2142 139.664 48.2143 139.664C48.2144 139.663 48.2146 139.662 36.3687 137.745ZM31.3467 150.735C29.5579 148.894 28.2487 147.223 27.3306 145.901C26.8717 145.241 26.5104 144.667 26.2354 144.202C26.098 143.97 25.982 143.764 25.886 143.589C25.8381 143.501 25.7951 143.421 25.757 143.348C25.738 143.312 25.7201 143.278 25.7034 143.245C25.6951 143.229 25.6871 143.213 25.6793 143.198C25.6754 143.191 25.6716 143.183 25.6679 143.176C25.6661 143.172 25.6642 143.168 25.6624 143.165C25.6615 143.163 25.6601 143.16 25.6597 143.159C25.6583 143.157 25.657 143.154 36.3687 137.745C47.0805 132.336 47.0791 132.333 47.0778 132.331C47.0773 132.33 47.076 132.327 47.0751 132.325C47.0734 132.322 47.0716 132.318 47.0699 132.315C47.0664 132.308 47.0629 132.301 47.0596 132.295C47.0528 132.281 47.0462 132.269 47.0398 132.256C47.027 132.231 47.015 132.208 47.0039 132.187C46.9815 132.144 46.9623 132.109 46.9464 132.08C46.9146 132.021 46.896 131.99 46.8916 131.982C46.8829 131.968 46.9307 132.049 47.0431 132.211C47.2677 132.535 47.7502 133.177 48.5578 134.008L31.3467 150.735ZM29.8105 135.13C39.0613 127.487 39.0575 127.482 39.0537 127.478C39.0524 127.476 39.0486 127.472 39.0461 127.469C39.0411 127.462 39.0361 127.456 39.0311 127.451C39.0212 127.439 39.0114 127.427 39.0017 127.415C38.9824 127.392 38.9637 127.37 38.9454 127.349C38.909 127.306 38.8748 127.267 38.843 127.231C38.7795 127.158 38.7254 127.099 38.6821 127.053C38.5958 126.96 38.5516 126.918 38.56 126.926C38.578 126.944 38.7977 127.153 39.2969 127.55C40.3029 128.35 42.3685 129.855 46.0693 132.048L33.8352 152.695C29.3885 150.061 26.3833 147.945 24.3553 146.331C23.3375 145.522 22.5494 144.826 21.9389 144.239C21.633 143.946 21.3694 143.678 21.1421 143.434C21.0284 143.312 20.9235 143.197 20.8268 143.087C20.7784 143.032 20.732 142.978 20.6875 142.926C20.6653 142.9 20.6436 142.874 20.6223 142.849C20.6116 142.836 20.6011 142.824 20.5907 142.811C20.5854 142.805 20.5803 142.799 20.5751 142.792C20.5725 142.789 20.5687 142.785 20.5674 142.783C20.5636 142.779 20.5597 142.774 29.8105 135.13ZM5.15859 164.374L18.6722 130.665L40.9488 139.596L27.4351 173.304L5.15859 164.374ZM27.807 190.122C22.4076 186.177 17.5386 182.653 11.2329 179.718L21.3609 157.96C30.0503 162.005 36.6368 166.85 41.9654 170.743L27.807 190.122ZM64.1431 205.329C47.074 204.418 36.6574 196.588 27.807 190.122L41.9654 170.743C50.8162 177.21 56.1199 180.866 65.4225 181.363L64.1431 205.329ZM93.2138 165.333L75.3853 198.966L54.1803 187.725L72.0089 154.092L93.2138 165.333ZM119.692 86.0191C121.384 89.0004 124.081 92.9228 128.083 97.7261L109.642 113.087C104.983 107.493 101.388 102.392 98.8187 97.8644L119.692 86.0191ZM93.1257 116.367C86.803 106.168 86.8041 106.167 86.8054 106.166C86.8059 106.166 86.8071 106.165 86.8081 106.165C86.8101 106.163 86.8123 106.162 86.8148 106.161C86.8198 106.157 86.8257 106.154 86.8327 106.149C86.8466 106.141 86.8645 106.13 86.8862 106.116C86.9297 106.09 86.9888 106.054 87.0626 106.008C87.2104 105.918 87.4176 105.793 87.6787 105.636C88.2005 105.324 88.9399 104.887 89.8509 104.365C91.6644 103.325 94.1998 101.922 97.0782 100.48C102.258 97.8842 110.539 94.1131 117.777 93.4558L119.948 117.357C117.747 117.557 113.159 119.266 107.83 121.937C105.455 123.127 103.326 124.304 101.788 125.185C101.024 125.624 100.417 125.983 100.01 126.226C99.8072 126.348 99.6551 126.44 99.5595 126.498C99.5117 126.527 99.4781 126.548 99.4594 126.559C99.45 126.565 99.4444 126.569 99.4425 126.57C99.4416 126.57 99.4416 126.57 99.4426 126.57C99.4431 126.569 99.4439 126.569 99.4449 126.568C99.4453 126.568 99.4463 126.568 99.4465 126.567C99.4475 126.567 99.4485 126.566 93.1257 116.367ZM112.294 109.822L102.978 123.218L83.2738 109.516L92.5899 96.1194L112.294 109.822ZM119.688 97.8709C117.384 101.925 114.879 105.954 112.421 109.635L92.4627 96.306C94.6242 93.0695 96.823 89.5307 98.8224 86.0126L119.688 97.8709Z" fill="white" mask="url(#path-1-outside-1)"/>
<path d="M170.785 152.422C150.035 158.527 139.513 157.654 139.513 157.654L149.346 182.197C170.625 185.078 182.565 184.355 203.879 178.122L196.235 142.285C196.235 142.285 191.535 146.317 170.785 152.422Z" fill="#C0BFFF"/>
<path d="M158.337 121.459C158.337 121.459 160.809 104.154 175.454 100.535C175.454 100.535 186.178 69.8317 194.044 74.6914C200.623 78.756 190.847 92.9547 189.92 114.459C188.993 135.963 189.181 145.454 189.181 145.454M175.084 87.4853C175.932 71.6229 177.208 50.2681 171.203 50.1854C165.197 50.1027 164.898 70.9924 160.422 88.1514C157.326 72.6003 149.467 42.1001 142.795 44.5081C136.123 46.9161 142.155 78.4096 146.004 93.8554C136.209 80.1349 128.668 53.0291 122.653 56.1753C116.638 59.3214 124.229 84.5485 133.721 98.3388C119.851 89.4132 110.924 77.2412 107.043 79.1668C103.163 81.0925 107.043 93.0727 125.09 112.455C134.572 137.411 146.072 157.013 146.072 157.013" stroke="black" stroke-width="4" stroke-linecap="round" stroke-linejoin="round"/>
<path d="M203.879 178.122L196.235 142.285C196.235 142.285 191.535 146.317 170.785 152.422C150.035 158.527 139.513 157.654 139.513 157.654L149.346 182.197" stroke="black" stroke-width="4" stroke-linecap="round" stroke-linejoin="round"/>
<path d="M52.9538 149.326C72.1878 158.79 82.6112 159.713 82.6112 159.713L64.7826 193.346C43.6054 192.215 36.1652 178.088 16.2966 168.839L29.8103 135.131C29.8103 135.131 33.7198 139.862 52.9538 149.326Z" fill="#FFBDAE"/>
<path d="M76.5922 156.147C103.8 121.802 129.621 115.882 124.777 107.46C120.234 99.5618 93.1257 116.367 93.1257 116.367L102.442 102.971C111.58 89.2877 121.373 70.5153 116.839 66.6589C112.305 62.8024 97.4715 81.1274 90.8239 94.2187C98.2822 80.3866 111.545 52.1286 104.929 49.7535C98.3123 47.3784 83.0259 75.2402 76.2097 89.4679C82.0077 76.0303 94.7008 48.2366 88.1198 46.84C81.5388 45.4434 70.2099 71.5971 63.9969 85.1333C68.8246 74.996 75.2188 54.8385 71.0388 53.858C66.8588 52.8775 57.0101 65.4142 48.4885 90.4625C39.967 115.511 36.3687 137.745 36.3687 137.745" stroke="black" stroke-width="4" stroke-linecap="round" stroke-linejoin="round"/>
<path d="M16.2966 168.839L29.8103 135.131C29.8103 135.131 33.7198 139.862 52.9538 149.326C72.1878 158.79 82.6112 159.713 82.6112 159.713L65.4042 193.035" stroke="black" stroke-width="4" stroke-linecap="round" stroke-linejoin="round"/>
<path d="M60.1694 21.4028L63.3502 33.0878M40.4873 22.3987L54.466 38.3541M39.047 40.5283L48.094 47.457" stroke="black" stroke-width="4" stroke-linecap="round" stroke-linejoin="round"/>
<path d="M176.919 20.356L175.967 32.4289M196.442 17.6725L188.035 31.3205M201.231 35.2176L190.504 40.7068" stroke="black" stroke-width="4" stroke-linecap="round" stroke-linejoin="round"/>
</svg>
