<svg width="220" height="220" viewBox="0 0 220 220" fill="none" xmlns="http://www.w3.org/2000/svg">
<mask id="path-1-outside-1" maskUnits="userSpaceOnUse" x="60.9775" y="1.6604" width="145" height="216" fill="black">
<rect fill="white" x="60.9775" y="1.6604" width="145" height="216"/>
<path fill-rule="evenodd" clip-rule="evenodd" d="M140.781 167.989C155.235 170.645 162.534 170.039 162.534 170.039L149.005 203.805C119.769 207.264 103.342 206.153 73.9775 198.199L84.4953 148.893C84.4953 148.893 88.8493 152.629 106.185 158.611C102.449 157.056 98.5004 155.282 94.2018 153.254C94.2018 153.254 94.5696 127.932 93.1847 110.611C92.7101 104.675 90.6414 96.9642 88.5565 89.1928C84.5578 74.2881 80.4992 59.1599 87.511 55.898C99.0452 50.5324 111.71 96.0728 111.71 96.0728L113.596 73.5C115.927 50.7776 122.059 22.0319 130.322 21.9181C138.1 21.811 138.25 50.8048 134.511 70.7942C139.186 48.6361 149.335 11.2367 158.02 14.3714C167.199 17.6844 158.901 61.0136 153.604 82.264C154.041 80.7662 154.509 79.1417 155.005 77.421C160.966 56.7352 170.938 22.13 178.578 26.1261C186.234 30.1304 177.376 62.9525 171.787 83.6627C171.632 84.2353 171.48 84.7986 171.331 85.3518C175.71 69.9135 185.648 46.2682 190.641 48.7458C195.98 51.3951 195.424 73.5196 182.379 107.854C169.333 142.188 153.511 169.157 153.511 169.157C148.916 168.86 144.723 168.483 140.781 167.989Z"/>
</mask>
<path d="M140.781 167.989L138.612 179.791C132.225 178.617 127.93 172.575 128.922 166.157C129.913 159.738 135.831 155.274 142.275 156.082L140.781 167.989ZM162.534 170.039L161.542 158.08C165.687 157.737 169.714 159.564 172.186 162.909C174.657 166.255 175.22 170.642 173.673 174.503L162.534 170.039ZM149.005 203.805L160.144 208.268C158.51 212.346 154.778 215.206 150.415 215.722L149.005 203.805ZM73.9775 198.199L70.84 209.781C64.6877 208.115 60.9118 201.929 62.2416 195.695L73.9775 198.199ZM84.4953 148.893L72.7593 146.39C73.6428 142.249 76.6434 138.88 80.6551 137.525C84.6669 136.169 89.0959 137.029 92.3095 139.786L84.4953 148.893ZM106.185 158.611L110.795 147.532C116.78 150.022 119.706 156.815 117.402 162.875C115.099 168.934 108.399 172.069 102.271 169.955L106.185 158.611ZM94.2018 153.254L89.0821 164.107C84.8247 162.099 82.1347 157.787 82.2031 153.08L94.2018 153.254ZM93.1847 110.611L105.146 109.654L93.1847 110.611ZM88.5565 89.1928L100.147 86.0834L88.5565 89.1928ZM87.511 55.898L92.5725 66.7783L92.5725 66.7784L87.511 55.898ZM111.71 96.0728L123.668 97.0723C123.184 102.863 118.621 107.475 112.835 108.02C107.05 108.565 101.706 104.886 100.149 99.288L111.71 96.0728ZM113.596 73.5L101.638 72.5005C101.644 72.4255 101.651 72.3506 101.659 72.2757L113.596 73.5ZM130.322 21.9181L130.487 33.917H130.487L130.322 21.9181ZM134.511 70.7942L146.253 73.2715C144.895 79.7034 138.616 83.8463 132.169 82.5634C125.722 81.2805 121.507 75.0493 122.716 68.5879L134.511 70.7942ZM158.02 14.3714L153.946 25.6587L158.02 14.3714ZM153.604 82.264L165.125 85.6228C163.296 91.8968 156.782 95.5535 150.473 93.8484C144.165 92.1432 140.38 85.7032 141.961 79.362L153.604 82.264ZM155.005 77.421L143.474 74.0981L155.005 77.421ZM178.578 26.1261L184.14 15.4928H184.14L178.578 26.1261ZM171.787 83.6627L160.201 80.536L160.201 80.536L171.787 83.6627ZM171.331 85.3518L182.875 88.6264C181.075 94.9728 174.49 98.6761 168.132 96.9176C161.774 95.159 158.028 88.598 159.744 82.2286L171.331 85.3518ZM190.641 48.7458L195.975 37.9965L195.975 37.9965L190.641 48.7458ZM182.379 107.854L193.596 112.116L182.379 107.854ZM153.511 169.157L163.861 175.229C161.567 179.141 157.263 181.424 152.738 181.132L153.511 169.157ZM142.95 156.186C149.663 157.42 154.575 157.871 157.674 158.025C159.223 158.102 160.322 158.105 160.966 158.094C161.289 158.089 161.498 158.08 161.594 158.075C161.642 158.073 161.662 158.071 161.653 158.072C161.648 158.072 161.637 158.073 161.619 158.074C161.609 158.075 161.598 158.076 161.586 158.077C161.579 158.077 161.572 158.078 161.565 158.079C161.561 158.079 161.558 158.079 161.554 158.079C161.552 158.08 161.549 158.08 161.548 158.08C161.545 158.08 161.542 158.08 162.534 170.039C163.526 181.998 163.523 181.999 163.52 181.999C163.518 181.999 163.515 181.999 163.513 181.999C163.509 182 163.504 182 163.5 182C163.491 182.001 163.481 182.002 163.471 182.003C163.451 182.004 163.43 182.006 163.406 182.008C163.359 182.011 163.305 182.015 163.244 182.019C163.121 182.027 162.97 182.036 162.79 182.045C162.43 182.063 161.956 182.081 161.369 182.091C160.193 182.11 158.563 182.099 156.481 181.995C152.317 181.788 146.353 181.214 138.612 179.791L142.95 156.186ZM173.673 174.503L160.144 208.268L137.866 199.342L151.395 165.576L173.673 174.503ZM150.415 215.722C119.656 219.361 101.686 218.137 70.84 209.781L77.1151 186.616C104.998 194.17 119.881 195.167 147.595 191.888L150.415 215.722ZM62.2416 195.695L72.7593 146.39L96.2312 151.397L85.7135 200.702L62.2416 195.695ZM84.4953 148.893C92.3095 139.786 92.3043 139.782 92.2991 139.777C92.2974 139.776 92.2922 139.772 92.2888 139.769C92.2819 139.763 92.2752 139.757 92.2685 139.751C92.2551 139.74 92.2421 139.729 92.2293 139.718C92.2038 139.697 92.1794 139.676 92.1563 139.657C92.1102 139.619 92.0689 139.586 92.0329 139.557C91.9609 139.5 91.9098 139.461 91.882 139.44C91.8266 139.399 91.8628 139.429 92.0103 139.525C92.3076 139.719 93.0359 140.17 94.3466 140.848C96.9794 142.208 101.849 144.42 110.099 147.267L102.271 169.955C93.1858 166.82 87.2102 164.174 83.332 162.171C81.3872 161.166 79.9435 160.31 78.8826 159.616C78.3511 159.269 77.9117 158.96 77.5505 158.691C77.3698 158.557 77.2082 158.432 77.064 158.317C76.9918 158.259 76.924 158.204 76.8603 158.151C76.8284 158.125 76.7976 158.099 76.7677 158.074C76.7528 158.062 76.7381 158.049 76.7237 158.037C76.7165 158.031 76.7093 158.025 76.7022 158.019C76.6987 158.016 76.6934 158.011 76.6916 158.01C76.6864 158.005 76.6811 158.001 84.4953 148.893ZM99.3215 142.401C103.503 144.374 107.276 146.067 110.795 147.532L101.575 169.69C97.6228 168.045 93.498 166.191 89.0821 164.107L99.3215 142.401ZM105.146 109.654C105.873 118.747 106.13 129.748 106.212 138.313C106.253 142.631 106.251 146.396 106.237 149.085C106.231 150.431 106.222 151.509 106.214 152.254C106.21 152.627 106.207 152.916 106.205 153.115C106.203 153.214 106.202 153.29 106.202 153.343C106.201 153.369 106.201 153.39 106.201 153.404C106.201 153.411 106.201 153.417 106.201 153.421C106.201 153.423 106.201 153.425 106.201 153.426C106.201 153.427 106.201 153.427 106.201 153.428C106.201 153.428 106.201 153.429 94.2018 153.254C82.2031 153.08 82.2031 153.08 82.203 153.081C82.203 153.081 82.203 153.081 82.203 153.08C82.2031 153.08 82.2031 153.08 82.2031 153.079C82.2031 153.077 82.2032 153.073 82.2032 153.068C82.2034 153.058 82.2036 153.041 82.2039 153.019C82.2045 152.975 82.2054 152.907 82.2065 152.817C82.2088 152.636 82.2119 152.365 82.2155 152.011C82.2227 151.304 82.2314 150.268 82.2378 148.969C82.2504 146.369 82.253 142.721 82.2131 138.543C82.1326 130.117 81.8807 119.796 81.2228 111.567L105.146 109.654ZM100.147 86.0834C102.123 93.4491 104.564 102.375 105.146 109.654L81.2228 111.567C80.8556 106.974 79.1601 100.479 76.9664 92.3023L100.147 86.0834ZM92.5725 66.7784C95.0069 65.6459 95.7144 63.6077 95.7752 63.3716C95.7868 63.3263 95.7196 63.5802 95.702 64.2506C95.6849 64.9045 95.7189 65.7843 95.8387 66.9214C96.3561 71.8294 98.0629 78.3163 100.147 86.0834L76.9664 92.3023C75.0515 85.1646 72.7297 76.635 71.971 69.4373C71.5929 65.8508 71.4665 61.5317 72.5327 57.3892C73.6796 52.9335 76.5092 47.7811 82.4496 45.0177L92.5725 66.7784ZM111.71 96.0728C100.149 99.288 100.149 99.2893 100.149 99.2905C100.149 99.2906 100.15 99.2916 100.15 99.2919C100.15 99.2926 100.15 99.2925 100.15 99.2918C100.149 99.2903 100.148 99.2862 100.146 99.2794C100.142 99.2658 100.136 99.2415 100.126 99.207C100.106 99.1381 100.075 99.0281 100.033 98.8802C99.9474 98.5842 99.8172 98.1367 99.6452 97.561C99.3008 96.4081 98.7915 94.7489 98.1442 92.7678C96.8386 88.7718 95.0209 83.6179 92.912 78.7143C90.7126 73.6003 88.5572 69.622 86.7843 67.4038C85.87 66.2599 85.7069 66.4189 86.4565 66.7971C87.669 67.409 90.1035 67.9269 92.5725 66.7783L82.4495 45.0177C87.802 42.5277 93.1554 43.295 97.2683 45.3704C100.918 47.2121 103.637 50.0486 105.532 52.4196C109.378 57.2311 112.551 63.6319 114.96 69.2323C117.459 75.0431 119.528 80.939 120.957 85.3141C121.678 87.5186 122.248 89.3754 122.641 90.692C122.838 91.351 122.991 91.8767 123.097 92.2452C123.15 92.4295 123.191 92.5746 123.221 92.6777C123.235 92.7292 123.247 92.7702 123.255 92.8003C123.259 92.8154 123.263 92.8277 123.265 92.8373C123.267 92.8421 123.268 92.8462 123.269 92.8496C123.269 92.8513 123.27 92.8533 123.27 92.8541C123.271 92.856 123.271 92.8577 111.71 96.0728ZM125.555 74.4994L123.668 97.0723L99.7516 95.0734L101.638 72.5005L125.555 74.4994ZM130.487 33.917C133.138 33.8805 134.77 32.6671 135.222 32.2723C135.614 31.9291 135.462 31.933 134.938 32.8384C133.895 34.6425 132.602 37.8561 131.276 42.5152C128.676 51.6531 126.657 63.7741 125.534 74.7242L101.659 72.2757C102.866 60.5035 105.079 46.8905 108.193 35.9465C109.724 30.5646 111.66 25.1502 114.163 20.8225C115.412 18.6619 117.113 16.2239 119.432 14.1981C121.809 12.1208 125.44 9.98419 130.157 9.91925L130.487 33.917ZM122.716 68.5879C124.426 59.4453 125.238 48.1675 124.754 39.4876C124.505 35.0276 123.955 32.0927 123.45 30.643C123.187 29.8874 123.214 30.3585 123.978 31.2056C124.961 32.2946 127.212 33.9621 130.487 33.917L130.157 9.91925C135.376 9.84738 139.334 12.3975 141.798 15.1297C144.045 17.62 145.33 20.4948 146.117 22.7547C147.711 27.3358 148.423 32.8786 148.717 38.1523C149.318 48.9399 148.335 62.1536 146.306 73.0004L122.716 68.5879ZM153.946 25.6587C157.511 26.9454 160.437 25.608 161.491 24.8862C162.234 24.3769 162.125 24.1904 161.363 25.3472C159.921 27.5374 158.076 31.5226 156.057 37.15C152.114 48.1416 148.54 62.4316 146.253 73.2715L122.77 68.3168C125.158 56.9986 128.995 41.5099 133.466 29.0461C135.655 22.9456 138.267 16.7839 141.317 12.1509C142.801 9.8961 144.946 7.12895 147.925 5.08783C151.214 2.83415 156.357 1.01375 162.094 3.08412L153.946 25.6587ZM141.961 79.362C144.537 69.0249 147.809 53.4288 149.318 40.2284C150.083 33.5336 150.316 28.0932 149.994 24.4468C149.828 22.576 149.572 21.9029 149.601 21.9724C149.635 22.0551 149.878 22.6271 150.516 23.3554C151.204 24.1405 152.334 25.077 153.946 25.6587L162.094 3.08412C167.733 5.11945 170.49 9.69745 171.764 12.7642C173.076 15.9203 173.636 19.3419 173.9 22.3311C174.438 28.4048 173.987 35.746 173.163 42.954C171.493 57.559 167.968 74.2528 165.248 85.1661L141.961 79.362ZM166.536 80.7438C166.041 82.4602 165.568 84.1035 165.125 85.6228L142.084 78.9053C142.514 77.4288 142.977 75.8232 143.474 74.0981L166.536 80.7438ZM173.017 36.7594C176.547 38.6061 180.034 37.6695 181.752 36.6471C182.894 35.9679 183.025 35.4502 182.343 36.4245C181.1 38.2013 179.37 41.6841 177.34 46.883C173.387 57.0061 169.557 70.26 166.536 80.7438L143.474 74.0981C146.414 63.8962 150.551 49.5046 154.984 38.1526C157.147 32.614 159.715 26.902 162.677 22.6677C164.098 20.6365 166.308 17.9093 169.481 16.0217C173.23 13.7909 178.699 12.647 184.14 15.4928L173.017 36.7594ZM160.201 80.536C163.032 70.0473 166.482 57.2267 168.326 46.5818C169.26 41.1847 169.65 37.0539 169.543 34.3735C169.488 33.014 169.325 32.6916 169.434 32.993C169.545 33.2992 170.377 35.3785 173.017 36.7594L184.14 15.4928C188.694 17.8747 190.924 21.8556 191.994 24.8042C193.062 27.748 193.419 30.8085 193.523 33.4128C193.734 38.6599 192.995 44.7799 191.973 50.6776C189.905 62.6224 186.131 76.568 183.372 86.7895L160.201 80.536ZM159.744 82.2286C159.894 81.6733 160.047 81.1082 160.201 80.536L183.372 86.7894C183.217 87.3624 183.066 87.9239 182.917 88.475L159.744 82.2286ZM185.307 59.4951C189.554 61.6022 193.281 60.1069 194.577 59.3553C195.674 58.719 195.95 58.1933 195.472 58.785C194.633 59.8256 193.256 62.0591 191.551 65.5709C188.246 72.3801 184.903 81.4796 182.875 88.6264L159.786 82.0772C162.138 73.7857 165.954 63.3434 169.961 55.0898C171.912 51.0702 174.23 46.892 176.795 43.7134C178.02 42.1956 179.925 40.1085 182.539 38.593C185.351 36.9623 190.481 35.27 195.975 37.9965L185.307 59.4951ZM171.161 103.592C177.435 87.0811 180.512 73.9871 181.474 65.1229C181.963 60.622 181.847 57.7312 181.599 56.2345C181.474 55.4832 181.391 55.5517 181.656 56.0737C181.906 56.5657 182.907 58.3042 185.307 59.4951L195.975 37.9965C199.71 39.8497 201.862 42.8592 203.053 45.2023C204.258 47.5755 204.905 50.0753 205.276 52.3073C206.017 56.777 205.948 62.0599 205.334 67.7132C204.092 79.1572 200.368 94.2926 193.596 112.116L171.161 103.592ZM153.511 169.157C143.161 163.085 143.16 163.085 143.16 163.086C143.16 163.086 143.159 163.087 143.159 163.087C143.159 163.088 143.159 163.088 143.159 163.088C143.159 163.087 143.161 163.085 143.163 163.081C143.168 163.073 143.176 163.059 143.188 163.038C143.212 162.997 143.251 162.93 143.304 162.838C143.41 162.655 143.573 162.371 143.789 161.993C144.22 161.236 144.861 160.098 145.675 158.62C147.304 155.66 149.624 151.339 152.347 145.961C157.803 135.184 164.83 120.256 171.161 103.592L193.596 112.116C186.883 129.787 179.475 145.51 173.759 156.801C170.896 162.456 168.445 167.023 166.699 170.194C165.826 171.78 165.129 173.018 164.644 173.869C164.402 174.295 164.212 174.625 164.08 174.853C164.014 174.967 163.962 175.056 163.926 175.119C163.907 175.15 163.893 175.175 163.882 175.194C163.877 175.203 163.872 175.211 163.869 175.216C163.867 175.219 163.865 175.222 163.864 175.224C163.864 175.225 163.863 175.227 163.863 175.227C163.862 175.228 163.861 175.229 153.511 169.157ZM142.275 156.082C145.924 156.54 149.869 156.897 154.284 157.182L152.738 181.132C147.962 180.824 143.522 180.427 139.287 179.895L142.275 156.082Z" fill="white" mask="url(#path-1-outside-1)"/>
<path d="M119.509 162.841C148.057 171.24 162.534 170.039 162.534 170.039L149.005 203.805C119.769 207.265 103.343 206.154 73.9777 198.199L84.4954 148.894C84.4954 148.894 90.9617 154.442 119.509 162.841Z" fill="#FFBDAE"/>
<path d="M146.406 111.072C146.406 111.072 133.634 88.9879 111.71 96.0729C111.71 96.0729 99.0453 50.5325 87.5111 55.8981C76.8434 60.8607 91.7999 93.2899 93.1848 110.611C94.5697 127.932 94.2019 153.255 94.2019 153.255M113.597 73.5001C115.927 50.7778 122.06 22.032 130.322 21.9182C138.584 21.8045 138.239 54.5309 133.768 74.4165C138.027 53.0211 148.841 11.0586 158.02 14.3715C167.199 17.6845 158.901 61.0137 153.604 82.2642C159.291 62.7598 170.303 21.7977 178.579 26.1262C186.854 30.4547 175.834 68.4554 170.504 88.4325C174.309 73.317 185.303 46.0966 190.642 48.7459C195.981 51.3952 195.424 73.5197 182.379 107.854C169.333 142.189 153.511 169.157 153.511 169.157" stroke="black" stroke-width="4" stroke-linecap="round" stroke-linejoin="round"/>
<path d="M73.9777 198.199L84.4955 148.894C84.4955 148.894 90.9617 154.442 119.51 162.841C148.057 171.24 162.534 170.039 162.534 170.039L149.005 203.805" stroke="black" stroke-width="4" stroke-linecap="round" stroke-linejoin="round"/>
<path fill-rule="evenodd" clip-rule="evenodd" d="M50.9546 49.494C42.1625 44.3946 32.608 43.6406 25.8519 46.5599C22.5006 48.008 19.8328 50.3533 18.1894 53.5494C16.5435 56.7503 15.8493 60.9541 16.7147 66.2332C18.0527 74.3949 22.9926 78.7702 28.7765 81.0162C34.669 83.3044 41.385 83.3354 45.7463 82.6376C46.4976 82.5174 47.252 82.8338 47.6926 83.454L51.005 88.116L49.6632 83.3076C49.4935 82.6994 49.6209 82.0468 50.007 81.5471C53.0213 77.6463 56.6023 71.3308 57.6793 65.0925C58.2139 61.9963 58.1133 59.0277 57.1274 56.4037C56.1551 53.8162 54.2681 51.4159 50.9546 49.494ZM12.7674 66.8803C11.7904 60.9206 12.524 55.8201 14.6321 51.7203C16.7426 47.6159 20.1548 44.6642 24.2653 42.888C32.4329 39.3588 43.3293 40.4472 52.9615 46.0339C57.0176 48.3865 59.5525 51.4858 60.8717 54.9967C62.1773 58.4712 62.238 62.1997 61.621 65.7731C60.4707 72.4357 56.9021 78.9329 53.7815 83.1837L57.9377 98.0774C58.1989 99.0135 57.7493 100.002 56.8721 100.42C55.9948 100.839 54.9438 100.566 54.3809 99.7733L45.1356 86.7613C40.3088 87.345 33.5057 87.1437 27.3286 84.7449C20.4919 82.0901 14.3773 76.7005 12.7674 66.8803ZM45.4524 60.8428C46.1425 60.5785 46.8623 60.5759 47.5332 60.73C48.4167 60.9329 49.2441 61.3442 49.8369 62.0679C50.4382 62.8019 50.6218 63.6418 50.6109 64.3607C50.5912 65.6737 49.9344 66.8542 49.4706 67.4958C49.3085 67.7201 49.1015 67.9083 48.8628 68.0485C48.2665 68.3988 47.5892 68.621 46.864 68.6078C46.127 68.5944 45.4784 68.3396 44.9603 67.9566C43.984 67.2348 43.5221 66.1199 43.3629 65.2048C43.204 64.2909 43.2645 63.1045 43.9032 62.1127C44.2437 61.5841 44.7559 61.1095 45.4524 60.8428ZM36.6309 60.73C35.9599 60.5759 35.2402 60.5785 34.55 60.8428C33.8536 61.1095 33.3413 61.5841 33.0009 62.1127C32.3622 63.1045 32.3017 64.2909 32.4606 65.2048C32.6197 66.1199 33.0817 67.2348 34.0579 67.9566C34.5761 68.3396 35.2246 68.5944 35.9616 68.6078C36.6868 68.621 37.3641 68.3988 37.9605 68.0485C38.1991 67.9083 38.4061 67.7201 38.5683 67.4958C39.0321 66.8542 39.6888 65.6737 39.7086 64.3607C39.7194 63.6418 39.5358 62.8019 38.9346 62.0679C38.3418 61.3442 37.5143 60.9329 36.6309 60.73ZM25.7285 60.73C25.0576 60.5759 24.3378 60.5785 23.6477 60.8428C22.9512 61.1095 22.439 61.5841 22.0986 62.1127C21.4598 63.1045 21.3994 64.2909 21.5583 65.2048C21.7174 66.1199 22.1793 67.2348 23.1556 67.9566C23.6737 68.3396 24.3223 68.5944 25.0593 68.6078C25.7845 68.621 26.4618 68.3988 27.0581 68.0485C27.2968 67.9083 27.5038 67.7201 27.6659 67.4958C28.1298 66.8542 28.7865 65.6737 28.8063 64.3607C28.8171 63.6418 28.6335 62.8019 28.0322 62.0679C27.4394 61.3442 26.612 60.9329 25.7285 60.73Z" fill="black"/>
</svg>
