<svg width="220" height="220" viewBox="0 0 220 220" fill="none" xmlns="http://www.w3.org/2000/svg">
<path d="M18.1056 131.787C93.3477 40.753 178.154 82.2886 174.435 109.808C169.787 144.207 59.1512 146.997 63.7997 109.808C68.4482 72.6199 126.09 74.4793 137.247 119.105C148.403 163.731 106.265 183.584 76.8157 154.434C47.3665 125.284 90.561 24.9615 124.231 27.9939C157.901 31.0263 140.218 100.382 104.707 117.246C69.196 134.109 26.2393 92.5697 47.0649 73.5494C67.8905 54.5291 174.18 97.3851 154.656 134.573C135.132 171.762 23.2146 75.5874 35.9085 44.7284C48.6024 13.8694 148.403 43.7987 150.263 80.987C152.122 118.175 62.3897 179.047 33.4327 147.114C4.47568 115.18 130.04 19.8524 156.771 46.5878C183.502 73.3232 129.496 170.604 81.4643 169.309C33.4327 168.014 33.8971 108.099 109.356 102.37C184.814 96.6412 191.868 139.457 160.49 152.575C129.111 165.692 6.95863 129 15.4549 80.987C22.9017 38.9045 213.875 46.3159 174.827 90.0123" stroke="white" stroke-width="29" stroke-linecap="round" stroke-linejoin="round"/>
<path d="M18.1056 131.787C93.3477 40.753 178.154 82.2886 174.435 109.808C169.787 144.207 59.1512 146.997 63.7997 109.808C68.4482 72.6199 126.09 74.4793 137.247 119.105C148.403 163.731 106.265 183.584 76.8157 154.434C47.3665 125.284 90.561 24.9615 124.231 27.9939C157.901 31.0263 140.218 100.382 104.707 117.246C69.196 134.109 26.2393 92.5697 47.0649 73.5494C67.8905 54.5291 174.18 97.3851 154.656 134.573C135.132 171.762 23.2146 75.5874 35.9085 44.7284C48.6024 13.8694 148.403 43.7987 150.263 80.987C152.122 118.175 62.3897 179.047 33.4327 147.114C4.47568 115.18 130.04 19.8524 156.771 46.5878C183.502 73.3232 129.496 170.604 81.4643 169.309C33.4327 168.014 33.8971 108.099 109.356 102.37C184.814 96.6412 191.868 139.457 160.49 152.575C129.111 165.692 6.95863 129 15.4549 80.987C22.9017 38.9045 213.875 46.3159 174.827 90.0123" stroke="black" stroke-width="4" stroke-linecap="round" stroke-linejoin="round"/>
<path d="M18.1056 131.787C93.3477 40.753 178.154 82.2886 174.435 109.808C169.787 144.207 59.1512 146.997 63.7997 109.808C68.4482 72.6199 126.09 74.4793 137.247 119.105C148.403 163.731 106.265 183.584 76.8157 154.434C47.3665 125.284 90.561 24.9615 124.231 27.9939C157.901 31.0263 140.218 100.382 104.707 117.246C69.196 134.109 26.2393 92.5697 47.0649 73.5494C67.8905 54.5291 174.18 97.3851 154.656 134.573C135.132 171.762 23.2146 75.5874 35.9085 44.7284C48.6024 13.8694 148.403 43.7987 150.263 80.987C152.122 118.175 62.3897 179.047 33.4327 147.114C4.47568 115.18 130.04 19.8524 156.771 46.5878C183.502 73.3232 129.496 170.604 81.4643 169.309C33.4327 168.014 33.8971 108.099 109.356 102.37C184.814 96.6412 191.868 139.457 160.49 152.575C129.111 165.692 6.95863 129 15.4549 80.987C22.9017 38.9045 213.875 46.3159 174.827 90.0123" stroke="black" stroke-opacity="0.2" stroke-width="4" stroke-linecap="round" stroke-linejoin="round"/>
<path fill-rule="evenodd" clip-rule="evenodd" d="M186.299 143.858C186.068 141.863 186.847 140.009 188.452 138.4C190.079 136.769 192.487 135.482 195.176 134.8C200.714 133.397 206.255 134.736 208.446 139.042C210.655 143.382 208.656 147.638 204.442 153.424C203.679 154.472 202.85 155.559 201.989 156.688C198.359 161.448 194.175 166.934 192.084 173.219C191.735 174.267 192.302 175.399 193.35 175.748C194.398 176.096 195.531 175.53 195.879 174.481C197.738 168.896 201.393 164.089 204.989 159.361L204.99 159.361C205.899 158.166 206.804 156.976 207.676 155.779C211.764 150.166 215.432 143.95 212.011 137.228C208.573 130.472 200.523 129.319 194.194 130.923C190.95 131.745 187.855 133.336 185.621 135.575C183.364 137.836 181.924 140.843 182.325 144.317C182.452 145.414 183.444 146.201 184.542 146.074C185.639 145.947 186.426 144.955 186.299 143.858ZM192.681 190.417C191.954 190.25 191.187 190.256 190.458 190.535C189.723 190.816 189.18 191.318 188.818 191.88C188.135 192.94 188.064 194.224 188.239 195.231C188.414 196.24 188.92 197.443 189.963 198.214C190.514 198.622 191.202 198.892 191.983 198.906C192.753 198.92 193.479 198.684 194.13 198.302C194.368 198.162 194.575 197.974 194.738 197.75C195.257 197.031 195.975 195.73 195.996 194.305C196.008 193.53 195.81 192.636 195.172 191.857C194.543 191.089 193.655 190.641 192.681 190.417Z" fill="black"/>
</svg>
