<svg width="220" height="220" viewBox="0 0 220 220" fill="none" xmlns="http://www.w3.org/2000/svg">
<mask id="path-1-outside-1" maskUnits="userSpaceOnUse" x="2.5" y="8" width="215" height="207" fill="black">
<rect fill="white" x="2.5" y="8" width="215" height="207"/>
<path fill-rule="evenodd" clip-rule="evenodd" d="M78.2245 175.557C78.9088 180.108 79.6659 184.9 80.5 190L39.5 202.5C24.3943 200.957 19.8821 174.234 15.5 102.5L73 94C72.9782 94.8415 72.958 95.6751 72.9394 96.5013C84.6178 92.9132 95.8 87.49 103.5 79.0002C112.885 68.6525 117.753 54.5986 121.839 42.803C126.243 30.09 129.738 20.0001 137 20C151 19.9999 137 79.0002 137 79.0002C178 72 198 70.7441 198 82C198 86.6792 191.001 90.4059 182.822 93.1633C193.322 91.797 203.351 92.3331 204.5 99C205.54 105.032 197.582 109.506 187.932 112.675C195.5 112.315 201.5 113.7 201.5 119C201.5 125.458 192.257 130.093 182.243 133.219C188.57 132.892 193.702 134.034 194 138.5C194.789 150.334 168.248 156.82 145.934 162.272C145.622 162.348 145.311 162.424 145 162.5C133.115 165.406 103.511 170.962 78.2245 175.557Z"/>
</mask>
<path d="M80.5 190L83.9995 201.478C89.7471 199.726 93.3126 193.993 92.3426 188.063L80.5 190ZM78.2245 175.557L76.0787 163.751C69.6983 164.91 65.3935 170.929 66.3579 177.342L78.2245 175.557ZM39.5 202.5L38.2807 214.438C39.8686 214.6 41.4728 214.444 42.9995 213.978L39.5 202.5ZM15.5 102.5L13.7452 90.629C7.58308 91.5399 3.14251 97.0142 3.52233 103.232L15.5 102.5ZM73 94L84.996 94.3109C85.0878 90.7689 83.6096 87.3674 80.9574 85.0178C78.3052 82.6682 74.7503 81.6109 71.2452 82.129L73 94ZM72.9394 96.5013L60.9424 96.2313C60.8557 100.085 62.6257 103.746 65.7 106.072C68.7744 108.397 72.7788 109.104 76.4637 107.972L72.9394 96.5013ZM103.5 79.0002L94.6113 70.9384V70.9384L103.5 79.0002ZM121.839 42.803L133.178 46.7307V46.7307L121.839 42.803ZM137 20L137 8L137 20ZM137 79.0002L125.324 76.2297C124.394 80.1486 125.492 84.2727 128.248 87.2102C131.004 90.1477 135.049 91.5069 139.02 90.829L137 79.0002ZM182.822 93.1633L178.988 81.7922C173.139 83.7644 169.74 89.853 171.131 95.8674C172.522 101.882 178.249 105.86 184.371 105.063L182.822 93.1633ZM204.5 99L216.326 96.9611V96.9611L204.5 99ZM187.932 112.675L184.188 101.274C178.484 103.147 175.042 108.948 176.131 114.852C177.221 120.756 182.506 124.947 188.503 124.661L187.932 112.675ZM182.243 133.219L178.668 121.764C172.896 123.566 169.366 129.381 170.431 135.333C171.496 141.285 176.824 145.515 182.863 145.203L182.243 133.219ZM194 138.5L182.027 139.298L194 138.5ZM145.934 162.272L143.086 150.615L143.086 150.615L145.934 162.272ZM145 162.5L142.151 150.843L142.15 150.843L145 162.5ZM92.3426 188.063C91.515 183.003 90.7662 178.262 90.091 173.773L66.3579 177.342C67.0514 181.953 67.8167 186.798 68.6574 191.937L92.3426 188.063ZM42.9995 213.978L83.9995 201.478L77.0005 178.522L36.0005 191.022L42.9995 213.978ZM3.52233 103.232C5.703 138.929 7.95993 164.516 11.7713 181.456C13.6667 189.88 16.187 197.354 20.0733 203.064C24.3131 209.293 30.377 213.631 38.2807 214.438L40.7193 190.562C40.6271 190.553 40.7324 190.564 40.82 190.621C40.8517 190.641 40.5113 190.438 39.9137 189.56C38.5686 187.583 36.8547 183.604 35.186 176.188C31.8694 161.447 29.6791 137.806 27.4777 101.768L3.52233 103.232ZM71.2452 82.129L13.7452 90.629L17.2548 114.371L74.7548 105.871L71.2452 82.129ZM84.9363 96.7713C84.9546 95.9592 84.9745 95.1393 84.996 94.3109L61.004 93.6891C60.9819 94.5438 60.9613 95.391 60.9424 96.2313L84.9363 96.7713ZM76.4637 107.972C89.0734 104.098 102.61 97.8431 112.389 87.0619L94.6113 70.9384C88.9896 77.1369 80.1622 81.7285 69.4151 85.0305L76.4637 107.972ZM112.389 87.0619C123.701 74.589 129.246 58.0824 133.178 46.7307L110.5 38.8752C106.26 51.1149 102.069 62.7159 94.6113 70.9384L112.389 87.0619ZM133.178 46.7307C135.514 39.9871 137.118 35.4952 138.786 32.5543C140.548 29.4474 140.123 32 137 32L137 8C126.615 8.00011 120.812 15.5976 117.91 20.714C114.914 25.9963 112.568 32.9058 110.5 38.8752L133.178 46.7307ZM137 32C133.508 32 131.336 29.7315 130.699 28.6576C130.392 28.1397 130.735 28.4873 130.99 30.6325C131.472 34.6976 131.185 40.9128 130.334 48.0862C129.508 55.0416 128.258 62.0874 127.197 67.4536C126.669 70.1213 126.195 72.3403 125.855 73.8829C125.686 74.6536 125.55 75.2537 125.458 75.6547C125.412 75.8552 125.377 76.0057 125.354 76.1028C125.343 76.1513 125.334 76.1864 125.329 76.2077C125.327 76.2184 125.325 76.2256 125.324 76.2292C125.324 76.2311 125.324 76.232 125.324 76.2321C125.324 76.2322 125.324 76.2315 125.324 76.2316C125.324 76.2307 125.324 76.2297 137 79.0002C148.676 81.7707 148.676 81.7692 148.677 81.7675C148.677 81.7666 148.677 81.7646 148.678 81.7629C148.678 81.7593 148.68 81.7549 148.681 81.7496C148.683 81.739 148.687 81.7248 148.691 81.7071C148.699 81.6717 148.711 81.6222 148.726 81.5591C148.755 81.4329 148.797 81.2521 148.85 81.0204C148.956 80.5572 149.107 79.8897 149.293 79.0471C149.664 77.3632 150.175 74.9727 150.741 72.1092C151.867 66.4128 153.242 58.7086 154.166 50.9138C155.065 43.3372 155.653 34.8023 154.823 27.8049C154.421 24.4188 153.561 20.1571 151.34 16.4127C148.789 12.1122 143.992 7.99993 137 8L137 32ZM139.02 90.829C159.691 87.2996 173.823 85.4619 182.617 85.6513C187.173 85.7494 188.6 86.3935 188.541 86.3619C188.301 86.2323 187.497 85.7185 186.812 84.5951C186.116 83.4514 186 82.4261 186 82H210C210 78.7599 209.259 75.3116 207.309 72.1094C205.371 68.9277 202.684 66.72 199.927 65.2347C194.837 62.4915 188.702 61.7767 183.133 61.6568C171.677 61.4102 155.309 63.7006 134.98 67.1714L139.02 90.829ZM186 82C186 79.9952 186.791 78.6493 187.162 78.1534C187.461 77.7516 187.502 77.8611 186.789 78.3396C185.325 79.3226 182.703 80.5397 178.988 81.7922L186.656 104.534C191.12 103.029 196.087 101.005 200.167 98.265C203.666 95.9158 210 90.683 210 82H186ZM184.371 105.063C189.242 104.429 192.802 104.432 194.803 104.834C195.755 105.025 195.514 105.15 194.823 104.621C193.851 103.88 192.936 102.558 192.674 101.039L216.326 96.9611C214.477 86.2415 205.267 82.4571 199.532 81.3045C193.606 80.1135 186.902 80.5312 181.273 81.2637L184.371 105.063ZM192.674 101.039C192.411 99.5108 192.809 98.1219 193.281 97.2943C193.629 96.6842 193.804 96.7341 193.087 97.2648C191.568 98.3889 188.61 99.8218 184.188 101.274L191.676 124.076C196.904 122.359 202.751 119.97 207.363 116.557C211.79 113.281 218.002 106.685 216.326 96.9611L192.674 101.039ZM188.503 124.661C189.986 124.591 191.167 124.618 192.055 124.707C192.987 124.8 193.281 124.929 193.155 124.879C193.016 124.825 191.993 124.397 190.995 123.122C189.873 121.689 189.5 120.102 189.5 119H213.5C213.5 115.248 212.377 111.501 209.893 108.328C207.534 105.314 204.538 103.569 201.954 102.55C197.093 100.635 191.628 100.485 187.362 100.688L188.503 124.661ZM189.5 119C189.5 117.562 190.062 116.629 190.231 116.399C190.317 116.282 190.064 116.651 189.006 117.351C186.834 118.787 183.272 120.327 178.668 121.764L185.819 144.674C191.228 142.985 197.294 140.644 202.248 137.367C206.765 134.379 213.5 128.471 213.5 119H189.5ZM182.863 145.203C184.03 145.143 184.928 145.163 185.571 145.224C186.251 145.289 186.367 145.374 186.117 145.278C185.857 145.179 184.824 144.738 183.792 143.526C182.641 142.175 182.113 140.594 182.027 139.298L205.973 137.702C205.738 134.173 204.457 130.774 202.062 127.963C199.786 125.291 197.02 123.748 194.648 122.846C190.183 121.148 185.311 121.044 181.624 121.235L182.863 145.203ZM182.027 139.298C181.878 137.069 183.285 136.348 182.111 137.364C180.854 138.451 178.33 139.952 174.121 141.659C165.776 145.043 154.507 147.824 143.086 150.615L148.783 173.929C159.676 171.267 172.834 168.08 183.141 163.899C188.257 161.824 193.616 159.144 197.81 155.517C202.088 151.817 206.516 145.848 205.973 137.702L182.027 139.298ZM143.086 150.615C142.774 150.691 142.462 150.767 142.151 150.843L147.849 174.157C148.159 174.081 148.471 174.005 148.783 173.929L143.086 150.615ZM142.15 150.843C130.7 153.643 101.523 159.126 76.0787 163.751L80.3702 187.364C105.499 182.797 135.529 177.169 147.85 174.157L142.15 150.843Z" fill="white" mask="url(#path-1-outside-1)"/>
<path d="M73 94L15.5 102.5C19.8821 174.234 24.3943 200.957 39.5 202.5L80.5 190C73.8693 149.462 72.1103 128.326 73 94Z" fill="#FDCA55"/>
<path d="M15.5 102.5L73 94C72.1103 128.326 73.8693 149.462 80.5 190L39.5 202.5" stroke="black" stroke-width="4" stroke-linecap="round" stroke-linejoin="round"/>
<path fill-rule="evenodd" clip-rule="evenodd" d="M104.981 80.3438C114.649 69.6846 119.636 55.2797 123.691 43.5685L123.692 43.5647C123.863 43.0693 124.033 42.5787 124.202 42.0935C126.313 36.0125 128.172 30.8579 130.324 27.212C132.483 23.5546 134.584 22 137 22C137.876 22 138.608 22.3901 139.299 23.5555C140.046 24.8136 140.604 26.7921 140.92 29.4544C141.547 34.7412 141.135 41.923 140.264 49.2644C139.397 56.5695 138.095 63.8897 137.007 69.3934C136.463 72.1427 135.974 74.4331 135.621 76.0347C135.444 76.8353 135.302 77.4635 135.204 77.8904C135.155 78.1039 135.117 78.267 135.092 78.3762L135.063 78.4991L135.056 78.5294L135.054 78.5366L135.054 78.5382C135.054 78.5384 135.054 78.5384 137 79.0002L135.054 78.5384C134.899 79.1916 135.082 79.8789 135.541 80.3685C136 80.8581 136.675 81.0846 137.336 80.9716C157.865 77.4667 172.929 75.4404 182.832 75.6536C187.81 75.7608 191.199 76.4344 193.285 77.5589C194.293 78.1022 194.944 78.7223 195.352 79.3927C195.759 80.0598 196 80.8985 196 82C196 82.7645 195.665 83.6302 194.771 84.6265C193.867 85.6338 192.493 86.6549 190.696 87.6588C188.36 88.964 185.477 90.1493 182.367 91.2058C181.492 91.3216 180.617 91.4497 179.749 91.5872C173.936 92.5085 168.221 93.8867 163.972 95.0296C161.845 95.602 160.077 96.1174 158.84 96.4903C158.221 96.6769 157.734 96.8279 157.4 96.9328C157.234 96.9852 157.105 97.0261 157.017 97.0542L156.917 97.0864L156.891 97.095L156.883 97.0974L156.881 97.098C156.881 97.0983 156.88 97.0984 157.5 99L156.88 97.0984C155.894 97.4197 155.317 98.4416 155.551 99.4519C155.786 100.462 156.754 101.126 157.781 100.98L157.5 99C157.781 100.98 157.781 100.98 157.782 100.98L157.784 100.98L157.79 100.979L157.814 100.975L157.906 100.962L158.032 100.944C158.094 100.934 158.168 100.923 158.253 100.91C158.556 100.865 158.998 100.796 159.559 100.706C160.681 100.524 162.28 100.253 164.198 99.8921C168.028 99.1714 173.152 98.0893 178.29 96.6465C179.953 96.1796 181.629 95.6717 183.272 95.1219C187.903 94.5296 192.313 94.3362 195.804 94.8607C200.118 95.5088 202.137 97.065 202.529 99.3398C202.922 101.618 201.382 104.025 197.187 106.524C194.56 108.089 191.219 109.477 187.561 110.691C184.842 110.834 181.982 111.187 179.178 111.644C173.584 112.556 168.011 113.921 163.85 115.052C161.766 115.618 160.029 116.128 158.811 116.497C158.201 116.682 157.721 116.831 157.392 116.935C157.298 116.965 157.217 116.99 157.148 117.012C157.096 117.029 157.052 117.043 157.015 117.055L156.916 117.087L156.89 117.095L156.883 117.098L156.881 117.098C156.88 117.098 156.88 117.099 157.5 119L156.88 117.099C155.905 117.417 155.328 118.42 155.545 119.423C155.762 120.425 156.701 121.101 157.721 120.988L157.5 119C157.721 120.988 157.721 120.988 157.722 120.988L157.724 120.987L157.732 120.987L157.761 120.983L157.872 120.97C157.915 120.966 157.966 120.96 158.026 120.952C158.102 120.943 158.192 120.933 158.295 120.92C158.664 120.876 159.202 120.808 159.885 120.718C161.249 120.537 163.191 120.263 165.514 119.889C170.152 119.14 176.331 117.988 182.448 116.371C184.407 115.853 186.375 115.284 188.295 114.66C190.522 114.566 192.564 114.636 194.303 114.919C196.199 115.228 197.526 115.761 198.345 116.429C199.077 117.026 199.5 117.799 199.5 119C199.5 121.397 197.604 123.858 193.592 126.279C190.398 128.206 186.265 129.855 181.884 131.236C179.671 131.362 177.367 131.654 175.122 132.027C170.512 132.793 165.949 133.938 162.553 134.886C160.851 135.361 159.434 135.789 158.44 136.098C157.943 136.253 157.552 136.379 157.283 136.466L157.13 136.516L156.974 136.567L156.893 136.594L156.871 136.601L156.865 136.603L156.864 136.604C156.863 136.604 156.863 136.604 157.5 138.5L156.863 136.604C155.89 136.931 155.322 137.942 155.549 138.943C155.777 139.944 156.725 140.61 157.744 140.485L157.5 138.5C157.744 140.485 157.744 140.485 157.745 140.485L157.747 140.485L157.754 140.484L157.781 140.48L157.88 140.468C157.946 140.459 158.035 140.448 158.146 140.433C158.181 140.429 158.219 140.424 158.259 140.418C158.588 140.374 159.069 140.308 159.679 140.219C160.899 140.041 162.637 139.772 164.722 139.404C168.886 138.67 174.457 137.54 180.044 135.959C180.893 135.718 181.745 135.467 182.595 135.204C184.462 135.119 186.175 135.174 187.638 135.412C189.198 135.665 190.289 136.099 190.972 136.632C191.583 137.108 191.943 137.711 192.004 138.633C192.146 140.755 191.09 142.852 188.548 145.016C185.995 147.191 182.19 149.204 177.495 151.08C168.354 154.734 156.444 157.645 145.384 160.347L144.525 160.557C133.482 163.257 104.514 168.766 77.9415 173.663C78.1339 174.962 78.3324 176.281 78.537 177.621C105.094 172.727 134.276 167.181 145.475 164.443L146.48 164.197L146.481 164.197C157.425 161.523 169.572 158.555 178.98 154.795C183.822 152.859 188.098 150.653 191.142 148.062C194.197 145.461 196.254 142.245 195.995 138.367C195.857 136.289 194.926 134.642 193.431 133.477C192.693 132.902 191.844 132.464 190.933 132.133C192.62 131.384 194.213 130.576 195.658 129.704C199.895 127.148 203.5 123.649 203.5 119C203.5 116.613 202.548 114.695 200.873 113.329C199.707 112.378 198.258 111.748 196.687 111.336C197.581 110.896 198.433 110.437 199.234 109.96C203.618 107.35 207.328 103.632 206.471 98.6602C205.613 93.6851 201.132 91.6163 196.399 90.9051C195.492 90.7689 194.543 90.6756 193.561 90.6199C195.19 89.6339 196.64 88.5325 197.748 87.2977C199.069 85.8255 200 84.0494 200 82C200 80.2875 199.616 78.7032 198.768 77.3118C197.923 75.9238 196.691 74.8501 195.183 74.0377C192.238 72.4507 188.065 71.7653 182.918 71.6545C173.073 71.4426 158.621 73.335 139.607 76.5299C139.958 74.9306 140.42 72.749 140.931 70.1693C142.03 64.6106 143.353 57.1806 144.236 49.7357C145.115 42.327 145.577 34.7587 144.892 28.9831C144.552 26.114 143.907 23.4832 142.739 21.5147C141.517 19.4536 139.623 18 137 18C132.416 18 129.267 21.133 126.879 25.1787C124.484 29.236 122.499 34.8002 120.423 40.7817C120.283 41.1847 120.143 41.59 120.001 41.9975L119.992 42.0248L119.992 42.0249C115.871 53.9143 111.122 67.6195 102.018 77.6566C94.7839 85.633 84.2385 90.8631 72.9897 94.3912C72.9535 95.8179 72.9219 97.2218 72.895 98.6054C84.9858 94.963 96.8102 89.3529 104.981 80.3438Z" fill="black"/>
<path d="M15.457 54.6444L48.2715 50.7838M27.6823 30.8377L32.1863 71.3734M56.6363 39.2022L74.6522 12.8219L72.7219 63.6523" stroke="black" stroke-width="4" stroke-linecap="round" stroke-linejoin="round"/>
</svg>
