<svg width="220" height="220" viewBox="0 0 220 220" fill="none" xmlns="http://www.w3.org/2000/svg">
<mask id="path-1-outside-1" maskUnits="userSpaceOnUse" x="2.5" y="6" width="215" height="207" fill="black">
<rect fill="white" x="2.5" y="6" width="215" height="207"/>
<path fill-rule="evenodd" clip-rule="evenodd" d="M141.776 45.4428C141.091 40.8923 140.334 36.0997 139.5 31L180.5 18.5C195.606 20.0428 200.118 46.7657 204.5 118.5L147 127C147.022 126.158 147.042 125.325 147.061 124.499C135.382 128.087 124.2 133.51 116.5 142C107.115 152.348 102.247 166.401 98.1608 178.197C93.7571 190.91 90.262 201 83 201C69 201 83 142 83 142C42 149 22 150.256 22 139C22 134.321 28.9991 130.594 37.178 127.837C26.6783 129.203 16.6495 128.667 15.5 122C14.4601 115.968 22.4179 111.494 32.0679 108.325C24.4995 108.685 18.5 107.3 18.5 102C18.5 95.5415 27.7431 90.907 37.7565 87.7811C31.4298 88.1079 26.2977 86.9662 26 82.5C25.211 70.6656 51.7518 64.1805 74.0657 58.7281C74.378 58.6518 74.6894 58.5757 75 58.4998C86.8852 55.5944 116.489 50.0384 141.776 45.4428Z"/>
</mask>
<path d="M139.5 31L136 19.5216C130.253 21.2739 126.687 27.0071 127.657 32.9371L139.5 31ZM141.776 45.4428L143.921 57.2494C150.302 56.0898 154.607 50.0709 153.642 43.6581L141.776 45.4428ZM180.5 18.5L181.719 6.5621C180.131 6.39993 178.527 6.55615 177 7.02161L180.5 18.5ZM204.5 118.5L206.255 130.371C212.417 129.46 216.857 123.986 216.478 117.768L204.5 118.5ZM147 127L135.004 126.689C134.912 130.231 136.39 133.633 139.043 135.982C141.695 138.332 145.25 139.389 148.755 138.871L147 127ZM147.061 124.499L159.058 124.769C159.144 120.915 157.374 117.254 154.3 114.928C151.226 112.603 147.221 111.896 143.536 113.028L147.061 124.499ZM116.5 142L125.389 150.062V150.062L116.5 142ZM98.1608 178.197L86.8218 174.269V174.269L98.1608 178.197ZM83 201L83.0001 213L83 201ZM83 142L94.6758 144.77C95.6057 140.851 94.5075 136.727 91.7519 133.79C88.9962 130.852 84.9507 129.493 80.9804 130.171L83 142ZM37.178 127.837L41.0117 139.208C46.8614 137.236 50.2605 131.147 48.8694 125.133C47.4783 119.118 41.7511 115.14 35.6295 115.937L37.178 127.837ZM15.5 122L3.67447 124.039V124.039L15.5 122ZM32.0679 108.325L35.8118 119.726C41.516 117.853 44.958 112.052 43.8687 106.148C42.7795 100.244 37.4943 96.0533 31.4972 96.3388L32.0679 108.325ZM37.7565 87.7811L41.3324 99.2359C47.1044 97.4341 50.6341 91.6192 49.5688 85.6671C48.5036 79.7149 43.1761 75.4852 37.1375 75.7971L37.7565 87.7811ZM26 82.5L37.9734 81.7018L26 82.5ZM74.0657 58.7281L76.914 70.3852L76.9142 70.3852L74.0657 58.7281ZM75 58.4998L77.8495 70.1566L77.8495 70.1566L75 58.4998ZM127.657 32.9371C128.485 37.9971 129.234 42.7378 129.909 47.2275L153.642 43.6581C152.949 39.0468 152.183 34.2023 151.343 29.0629L127.657 32.9371ZM177 7.02161L136 19.5216L143 42.4784L184 29.9784L177 7.02161ZM216.478 117.768C214.297 82.0713 212.04 56.4839 208.229 39.5441C206.333 31.1201 203.813 23.6461 199.927 17.9362C195.687 11.7071 189.623 7.36935 181.719 6.5621L179.281 30.4379C179.373 30.4473 179.268 30.4358 179.18 30.3793C179.148 30.3588 179.489 30.5623 180.086 31.4402C181.431 33.4165 183.145 37.3959 184.814 44.8123C188.131 59.5531 190.321 83.1943 192.522 119.232L216.478 117.768ZM148.755 138.871L206.255 130.371L202.745 106.629L145.245 115.129L148.755 138.871ZM135.064 124.229C135.045 125.041 135.025 125.861 135.004 126.689L158.996 127.311C159.018 126.456 159.039 125.609 159.058 124.769L135.064 124.229ZM143.536 113.028C130.927 116.902 117.39 123.157 107.611 133.938L125.389 150.062C131.01 143.863 139.838 139.271 150.585 135.97L143.536 113.028ZM107.611 133.938C96.2988 146.411 90.754 162.918 86.8218 174.269L109.5 182.125C113.74 169.885 117.931 158.284 125.389 150.062L107.611 133.938ZM86.8218 174.269C84.4859 181.013 82.8822 185.505 81.2142 188.446C79.4521 191.553 79.8768 189 82.9999 189L83.0001 213C93.3852 213 99.1884 205.402 102.09 200.286C105.086 195.004 107.432 188.094 109.5 182.125L86.8218 174.269ZM82.9999 189C86.4916 189 88.664 191.269 89.3011 192.342C89.6083 192.86 89.2647 192.513 89.0102 190.367C88.5279 186.302 88.8153 180.087 89.6664 172.914C90.4916 165.958 91.7422 158.913 92.8033 153.546C93.3308 150.879 93.8048 148.66 94.1447 147.117C94.3145 146.346 94.4505 145.746 94.5424 145.345C94.5884 145.145 94.6234 144.994 94.646 144.897C94.6574 144.849 94.6656 144.814 94.6706 144.792C94.6731 144.782 94.6748 144.774 94.6757 144.771C94.6761 144.769 94.6764 144.768 94.6764 144.768C94.6764 144.768 94.6762 144.768 94.6762 144.768C94.676 144.769 94.6758 144.77 83 142C71.3242 139.229 71.3238 139.231 71.3234 139.233C71.3232 139.233 71.3228 139.235 71.3223 139.237C71.3215 139.241 71.3205 139.245 71.3192 139.25C71.3167 139.261 71.3133 139.275 71.3092 139.293C71.3008 139.328 71.2892 139.378 71.2745 139.441C71.245 139.567 71.2031 139.748 71.1499 139.98C71.0437 140.443 70.8925 141.11 70.7069 141.953C70.3358 143.637 69.8254 146.027 69.2592 148.891C68.1328 154.587 66.7584 162.291 65.8336 170.086C64.9346 177.663 64.3471 186.198 65.1773 193.195C65.5791 196.581 66.4386 200.843 68.6598 204.587C71.211 208.888 76.0084 213 83.0001 213L82.9999 189ZM80.9804 130.171C60.3087 133.7 46.1772 135.538 37.3833 135.349C32.8269 135.251 31.3999 134.606 31.4586 134.638C31.6991 134.768 32.5034 135.282 33.1877 136.405C33.8844 137.549 34 138.574 34 139H9.99998C9.99998 142.24 10.7406 145.688 12.6912 148.891C14.6294 152.072 17.3165 154.28 20.0726 155.765C25.1626 158.508 31.2981 159.223 36.8667 159.343C48.3228 159.59 64.6913 157.299 85.0196 153.829L80.9804 130.171ZM34 139C34 141.005 33.2086 142.351 32.8385 142.847C32.5386 143.248 32.4983 143.139 33.211 142.66C34.6751 141.677 37.2967 140.46 41.0117 139.208L33.3443 116.466C28.8804 117.971 23.913 119.995 19.8328 122.735C16.3339 125.084 9.99998 130.317 9.99998 139H34ZM35.6295 115.937C30.7581 116.571 27.1984 116.568 25.1972 116.166C24.2454 115.975 24.4855 115.85 25.1774 116.379C26.1491 117.12 27.0635 118.442 27.3255 119.961L3.67447 124.039C5.52271 134.759 14.7332 138.543 20.4681 139.696C26.3936 140.887 33.0982 140.469 38.7266 139.736L35.6295 115.937ZM27.3255 119.961C27.589 121.489 27.1905 122.878 26.719 123.706C26.3712 124.316 26.1963 124.266 26.9134 123.735C28.4325 122.611 31.3901 121.178 35.8118 119.726L28.3239 96.9242C23.0957 98.6411 17.2494 101.03 12.6371 104.443C8.21013 107.719 1.99797 114.315 3.67447 124.039L27.3255 119.961ZM31.4972 96.3388C30.0143 96.4094 28.8326 96.3817 27.9445 96.2933C27.0132 96.2005 26.7188 96.0708 26.8454 96.1207C26.9837 96.1752 28.0065 96.6027 29.0047 97.8778C30.1269 99.3113 30.5 100.898 30.5 102L6.49998 102C6.49998 105.752 7.623 109.499 10.1066 112.672C12.4663 115.686 15.462 117.431 18.0462 118.45C22.9072 120.365 28.3724 120.515 32.6385 120.312L31.4972 96.3388ZM30.5 102C30.5 103.438 29.9381 104.371 29.7691 104.601C29.6833 104.718 29.9362 104.349 30.994 103.649C33.1655 102.213 36.7278 100.673 41.3324 99.2359L34.1807 76.3263C28.7718 78.0147 22.7059 80.3557 17.7525 83.6326C13.2351 86.6209 6.49998 92.5293 6.49998 102L30.5 102ZM37.1375 75.7971C35.9698 75.8574 35.0719 75.837 34.4289 75.7758C33.7489 75.7111 33.6326 75.6264 33.883 75.7217C34.1434 75.8207 35.1755 76.262 36.2077 77.4736C37.3586 78.8247 37.887 80.4059 37.9734 81.7018L14.0266 83.2982C14.2618 86.8272 15.5434 90.226 17.9381 93.037C20.2139 95.7086 22.9803 97.2523 25.3518 98.1542C29.8173 99.8524 34.689 99.9556 38.3755 99.7651L37.1375 75.7971ZM37.9734 81.7018C38.122 83.9305 36.715 84.6517 37.8891 83.6364C39.1464 82.549 41.67 81.0481 45.8792 79.3411C54.2237 75.9569 65.4932 73.1758 76.914 70.3852L71.2173 47.0711C60.3242 49.7328 47.1664 52.9204 36.8594 57.1005C31.7427 59.1756 26.3844 61.8557 22.19 65.4831C17.9122 69.1826 13.4835 75.1523 14.0266 83.2982L37.9734 81.7018ZM76.9142 70.3852C77.2265 70.3088 77.5384 70.2326 77.8495 70.1566L72.1505 46.843C71.8405 46.9188 71.5295 46.9948 71.2172 47.0711L76.9142 70.3852ZM77.8495 70.1566C89.2999 67.3575 118.477 61.8737 143.921 57.2494L139.63 33.6362C114.501 38.2032 84.4705 43.8314 72.1505 46.843L77.8495 70.1566Z" fill="white" mask="url(#path-1-outside-1)"/>
<path d="M147 127L204.5 118.5C200.118 46.7657 195.606 20.0428 180.5 18.5L139.5 31C146.131 71.5384 147.89 92.6741 147 127Z" fill="#FFBDAE"/>
<path d="M204.5 118.5L147 127C147.89 92.6741 146.131 71.5384 139.5 31L180.5 18.5" stroke="black" stroke-width="4" stroke-linecap="round" stroke-linejoin="round"/>
<path fill-rule="evenodd" clip-rule="evenodd" d="M115.019 140.656C105.351 151.315 100.364 165.72 96.3095 177.432L96.3081 177.435C96.1366 177.931 95.9668 178.421 95.7983 178.907C93.6873 184.988 91.8283 190.142 89.6763 193.788C87.5175 197.445 85.416 199 83.0002 199C82.1238 199 81.3922 198.61 80.7008 197.444C79.9545 196.186 79.3959 194.208 79.08 191.546C78.4528 186.259 78.8653 179.077 79.7363 171.736C80.603 164.431 81.9052 157.11 82.9935 151.607C83.5371 148.857 84.0263 146.567 84.3792 144.965C84.5556 144.165 84.6979 143.537 84.7958 143.11C84.8448 142.896 84.8826 142.733 84.9081 142.624L84.9369 142.501L84.9441 142.471L84.9458 142.463L84.9461 142.462C84.9462 142.462 84.9462 142.462 83.0002 142L84.9462 142.462C85.1012 141.808 84.9182 141.121 84.4589 140.631C83.9996 140.142 83.3253 139.915 82.6636 140.028C62.135 143.533 47.0714 145.56 37.1683 145.346C32.1901 145.239 28.8013 144.566 26.7147 143.441C25.7066 142.898 25.0561 142.278 24.6477 141.607C24.2414 140.94 24.0002 140.102 24.0002 139C24.0002 138.236 24.3352 137.37 25.2291 136.374C26.1329 135.366 27.507 134.345 29.3038 133.341C31.64 132.036 34.5233 130.851 37.6332 129.794C38.5085 129.678 39.3826 129.55 40.2508 129.413C46.0644 128.492 51.779 127.113 56.0276 125.97C58.1552 125.398 59.9227 124.883 61.1603 124.51C61.7793 124.323 62.2661 124.172 62.5997 124.067C62.7665 124.015 62.895 123.974 62.9826 123.946L63.0829 123.914L63.1094 123.905L63.1167 123.903L63.1188 123.902C63.1194 123.902 63.1198 123.902 62.5002 122L63.1198 123.902C64.106 123.58 64.6829 122.558 64.4485 121.548C64.2141 120.538 63.2463 119.874 62.2194 120.02L62.5002 122C62.2194 120.02 62.219 120.02 62.2184 120.02L62.2165 120.02L62.2099 120.021L62.1857 120.025L62.0945 120.038L61.9684 120.056C61.9057 120.066 61.8316 120.077 61.7466 120.09C61.4436 120.135 61.0017 120.204 60.4408 120.294C59.3191 120.476 57.72 120.747 55.8023 121.108C51.9719 121.829 46.8478 122.911 41.7095 124.354C40.0468 124.82 38.3705 125.328 36.7277 125.878C32.0966 126.47 27.6868 126.664 24.1958 126.139C19.8823 125.491 17.8634 123.935 17.4711 121.66C17.0784 119.382 18.618 116.975 22.8127 114.476C25.4403 112.911 28.7813 111.523 32.4387 110.309C35.1581 110.166 38.0184 109.813 40.8222 109.356C46.4162 108.444 51.9893 107.079 56.1498 105.948C58.2337 105.382 59.971 104.872 61.1894 104.503C61.7987 104.318 62.2786 104.169 62.6075 104.065C62.7015 104.035 62.7832 104.01 62.852 103.988C62.9037 103.971 62.9481 103.957 62.9852 103.945L63.0841 103.913L63.1102 103.905L63.1173 103.902L63.1194 103.902C63.12 103.902 63.1204 103.901 62.5002 102L63.1204 103.901C64.0954 103.583 64.6718 102.58 64.455 101.577C64.2383 100.575 63.2986 99.899 62.2794 100.012L62.5002 102C62.2794 100.012 62.2789 100.012 62.2782 100.012L62.276 100.013L62.268 100.013L62.2388 100.017L62.128 100.03C62.0853 100.034 62.0339 100.04 61.974 100.048C61.8978 100.057 61.8078 100.067 61.7045 100.08C61.3357 100.124 60.7977 100.192 60.1154 100.282C58.7512 100.463 56.8085 100.737 54.4865 101.111C49.8484 101.86 43.6692 103.012 37.5518 104.629C35.5928 105.147 33.6248 105.716 31.7054 106.34C29.4777 106.434 27.4357 106.364 25.6972 106.081C23.8011 105.772 22.4738 105.239 21.6548 104.571C20.9235 103.974 20.5002 103.201 20.5002 102C20.5002 99.6035 22.3957 97.1418 26.4084 94.7209C29.6015 92.7944 33.7352 91.1446 38.1161 89.7645C40.329 89.6379 42.6326 89.3462 44.8781 88.9729C49.4877 88.2068 54.0506 87.0618 57.4472 86.1139C59.1491 85.6389 60.5661 85.2113 61.5597 84.9016C62.0567 84.7468 62.4481 84.6213 62.7167 84.5341L62.8702 84.4841L63.0256 84.433L63.1069 84.406L63.1286 84.3987L63.1347 84.3967L63.1365 84.3961C63.137 84.3959 63.1375 84.3958 62.5002 82.5L63.1375 84.3958C64.1105 84.0687 64.6779 83.0581 64.4506 82.0571C64.2233 81.0561 63.275 80.3897 62.2562 80.5149L62.5002 82.5C62.2562 80.5149 62.2557 80.515 62.2551 80.5151L62.253 80.5153L62.2457 80.5162L62.2193 80.5195L62.1199 80.5322C62.0542 80.5406 61.9653 80.5521 61.8544 80.5668C61.8189 80.5714 61.7812 80.5765 61.7412 80.5818C61.4116 80.6258 60.931 80.6919 60.321 80.7809C59.1013 80.9587 57.3628 81.2281 55.278 81.5957C51.114 82.3298 45.5428 83.4599 39.9555 85.0414C39.107 85.2816 38.2552 85.533 37.4055 85.7959C35.5385 85.881 33.8246 85.8263 32.3618 85.5884C30.8023 85.3348 29.7113 84.9005 29.0276 84.3677C28.4169 83.8919 28.0573 83.2888 27.9958 82.367C27.8543 80.2446 28.9097 78.148 31.4515 75.9837C34.005 73.8095 37.8102 71.7963 42.5051 69.9196C51.6455 66.2658 63.5558 63.3553 74.6157 60.6526L75.4752 60.4426C86.5176 57.7432 115.486 52.2343 142.058 47.3368C141.866 46.0377 141.668 44.719 141.463 43.3792C114.906 48.2733 85.724 53.8194 74.5253 56.557L73.5201 56.8027L73.5194 56.8028C62.575 59.4768 50.4284 62.4445 41.0204 66.2054C36.1778 68.1411 31.9017 70.3468 28.8583 72.9382C25.8033 75.5395 23.7462 78.7554 24.0047 82.633C24.1432 84.7112 25.0741 86.3581 26.569 87.5229C27.3074 88.0983 28.1558 88.5359 29.0669 88.8668C27.3797 89.6159 25.7866 90.4245 24.3421 91.2959C20.1047 93.8524 16.5002 97.351 16.5002 102C16.5002 104.387 17.452 106.305 19.1269 107.671C20.2932 108.622 21.7419 109.252 23.3126 109.664C22.4189 110.104 21.5668 110.563 20.7658 111.04C16.3825 113.65 12.672 117.368 13.5293 122.34C14.3871 127.315 18.8682 129.384 23.6015 130.095C24.5081 130.231 25.4573 130.324 26.4392 130.38C24.8096 131.366 23.3597 132.467 22.2518 133.702C20.9309 135.175 20.0002 136.951 20.0002 139C20.0002 140.713 20.3841 142.297 21.2316 143.688C22.0771 145.076 23.3095 146.15 24.817 146.962C27.7617 148.549 31.9353 149.235 37.0822 149.345C46.927 149.557 61.3795 147.665 80.3926 144.47C80.0425 146.069 79.5796 148.251 79.0695 150.831C77.9703 156.389 76.6475 163.819 75.7642 171.264C74.8852 178.673 74.4227 186.241 75.1079 192.017C75.4483 194.886 76.0928 197.517 77.2606 199.485C78.4833 201.546 80.3766 203 83.0003 203C87.5844 203 90.733 199.867 93.121 195.821C95.5159 191.764 97.5006 186.2 99.5771 180.218C99.717 179.815 99.8575 179.41 99.9987 179.003L100.008 178.975L100.008 178.975C104.129 167.086 108.878 153.381 117.982 143.343C125.216 135.367 135.762 130.137 147.01 126.609C147.047 125.182 147.078 123.778 147.105 122.395C135.014 126.037 123.19 131.647 115.019 140.656Z" fill="black"/>
<path d="M156.1 153L152.5 169.573M173.65 153L169.15 169.573M134.5 192.417C139 188.535 150.97 180.771 162.85 180.771C174.73 180.771 184.9 190.924 188.5 196" stroke="black" stroke-width="4" stroke-linecap="round" stroke-linejoin="round"/>
</svg>
