<svg width="220" height="220" viewBox="0 0 220 220" fill="none" xmlns="http://www.w3.org/2000/svg">
<mask id="path-1-outside-1" maskUnits="userSpaceOnUse" x="29.5223" y="2.03625" width="161" height="216" fill="black">
<rect fill="white" x="29.5223" y="2.03625" width="161" height="216"/>
<path fill-rule="evenodd" clip-rule="evenodd" d="M115.495 167.043C97.8742 170.778 88.9661 170.039 88.9661 170.039L102.495 203.805C131.771 207.769 148.197 206.774 177.522 198.199L167.005 148.894C167.005 148.894 162.25 152.973 142.894 159.432C147.346 157.701 152.064 155.664 157.298 153.255C157.298 153.255 157.04 140.197 158.315 110.611C158.877 97.5735 161.803 86.4879 164.126 77.687C167.075 66.5159 169.052 59.026 163.989 55.8981C153.167 49.2121 138.413 91.4547 138.413 91.4547L137.904 73.5C137.929 73.0342 137.954 72.5649 137.979 72.0926C139.141 50.4355 140.65 22.2938 132.564 22.1824C127.138 22.1077 125.098 34.4769 122.592 49.6642C121.283 57.6032 119.846 66.3123 117.732 74.4165C113.473 53.0211 102.659 11.0585 93.4804 14.3715C84.3014 17.6845 92.5994 61.0137 97.8957 82.2641C92.4595 74.6492 87.5279 64.0374 83.0352 54.3701C76.3908 40.0728 70.7063 27.841 65.7691 30.4234C57.4936 34.7519 67.9378 69.4596 80.9962 88.4325C72.5578 83.002 65.449 76.698 59.6824 71.5842C52.409 65.1342 47.2708 60.5777 44.2929 62.0554C38.9539 64.7048 44.293 81.1873 69.1213 107.854C82.1668 142.189 97.9891 169.157 97.9891 169.157C104.492 168.595 110.187 167.929 115.495 167.043Z"/>
</mask>
<path d="M115.495 167.043L117.983 178.782C124.367 177.428 128.499 171.222 127.285 164.81C126.071 158.398 119.956 154.132 113.519 155.206L115.495 167.043ZM88.9661 170.039L89.9581 158.081C85.8129 157.737 81.7854 159.564 79.314 162.909C76.8427 166.255 76.28 170.642 77.827 174.503L88.9661 170.039ZM102.495 203.805L91.356 208.268C92.9632 212.28 96.6029 215.117 100.885 215.697L102.495 203.805ZM177.522 198.199L180.89 209.717C186.92 207.954 190.569 201.839 189.258 195.695L177.522 198.199ZM167.005 148.894L178.741 146.39C177.857 142.249 174.857 138.88 170.845 137.525C166.833 136.17 162.404 137.029 159.19 139.787L167.005 148.894ZM142.894 159.432L138.544 148.248C132.474 150.609 129.395 157.381 131.607 163.507C133.819 169.634 140.514 172.877 146.692 170.815L142.894 159.432ZM157.298 153.255L162.317 164.155C166.65 162.16 169.39 157.787 169.296 153.017L157.298 153.255ZM158.315 110.611L170.304 111.128L158.315 110.611ZM164.126 77.687L152.524 74.6245H152.524L164.126 77.687ZM163.989 55.8981L157.682 66.107H157.682L163.989 55.8981ZM138.413 91.4547L126.418 91.7949C126.582 97.5814 130.854 102.426 136.574 103.313C142.295 104.2 147.833 100.877 149.742 95.4114L138.413 91.4547ZM137.904 73.5L125.921 72.8594C125.903 73.186 125.899 73.5133 125.908 73.8403L137.904 73.5ZM137.979 72.0926L125.996 71.4498V71.4498L137.979 72.0926ZM132.564 22.1824L132.73 10.1836H132.73L132.564 22.1824ZM122.592 49.6642L134.432 51.6174L122.592 49.6642ZM117.732 74.4165L105.963 76.7595C107.055 82.2441 111.791 86.2475 117.381 86.4114C122.97 86.5753 127.933 82.8563 129.344 77.4451L117.732 74.4165ZM93.4804 14.3715L89.4065 3.08421L89.4065 3.08423L93.4804 14.3715ZM97.8957 82.2641L88.1291 89.2364C91.4777 93.927 97.6879 95.5747 102.921 93.1611C108.155 90.7475 110.933 84.9542 109.54 79.3621L97.8957 82.2641ZM83.0352 54.3701L72.1529 59.4274L83.0352 54.3701ZM65.7691 30.4234L71.3309 41.0567H71.3309L65.7691 30.4234ZM80.9962 88.4325L74.5021 98.5235C79.3097 101.617 85.6324 100.89 89.6119 96.7853C93.5913 92.6806 94.1225 86.3385 90.8811 81.629L80.9962 88.4325ZM59.6824 71.5842L51.7205 80.5624L51.7205 80.5624L59.6824 71.5842ZM44.2929 62.0554L49.6269 72.8047H49.627L44.2929 62.0554ZM69.1213 107.854L80.3389 103.592C79.7879 102.142 78.961 100.812 77.904 99.6771L69.1213 107.854ZM97.9891 169.157L87.6389 175.229C89.9813 179.222 94.4111 181.511 99.0228 181.112L97.9891 169.157ZM113.006 155.304C104.756 157.053 98.7006 157.722 94.8596 157.966C92.9383 158.089 91.568 158.105 90.7511 158.097C90.3426 158.093 90.072 158.083 89.9399 158.077C89.8738 158.074 89.8422 158.072 89.8452 158.072C89.8468 158.072 89.8569 158.073 89.8757 158.074C89.8851 158.075 89.8967 158.076 89.9104 158.077C89.9173 158.077 89.9247 158.078 89.9326 158.078C89.9366 158.079 89.9407 158.079 89.9449 158.079C89.947 158.08 89.9503 158.08 89.9514 158.08C89.9547 158.08 89.9581 158.081 88.9661 170.039C87.9741 181.998 87.9775 181.999 87.981 181.999C87.9822 181.999 87.9857 181.999 87.9881 182C87.9929 182 87.9978 182 88.0028 182.001C88.013 182.002 88.0236 182.002 88.0348 182.003C88.0572 182.005 88.0819 182.007 88.1086 182.009C88.1622 182.013 88.2246 182.017 88.2956 182.022C88.4377 182.031 88.6148 182.041 88.8267 182.051C89.2505 182.071 89.8136 182.089 90.5155 182.096C91.9195 182.11 93.8775 182.078 96.3857 181.918C101.404 181.598 108.613 180.768 117.983 178.782L113.006 155.304ZM77.827 174.503L91.356 208.268L113.634 199.342L100.105 165.576L77.827 174.503ZM100.885 215.697C131.781 219.88 149.905 218.777 180.89 209.717L174.154 186.681C146.489 194.771 131.761 195.658 104.105 191.914L100.885 215.697ZM189.258 195.695L178.741 146.39L155.269 151.397L165.786 200.702L189.258 195.695ZM167.005 148.894C159.19 139.787 159.196 139.782 159.201 139.777C159.203 139.776 159.208 139.771 159.212 139.768C159.219 139.762 159.226 139.756 159.233 139.75C159.247 139.738 159.261 139.727 159.274 139.715C159.301 139.693 159.326 139.672 159.35 139.652C159.398 139.613 159.44 139.579 159.477 139.549C159.55 139.491 159.6 139.453 159.625 139.435C159.674 139.399 159.622 139.44 159.447 139.553C159.094 139.78 158.265 140.286 156.786 141.035C153.816 142.539 148.353 144.96 139.096 148.049L146.692 170.815C156.79 167.446 163.383 164.597 167.629 162.446C169.759 161.368 171.328 160.45 172.471 159.711C173.044 159.341 173.515 159.013 173.9 158.728C174.093 158.586 174.264 158.454 174.416 158.333C174.493 158.272 174.564 158.214 174.631 158.159C174.664 158.131 174.697 158.104 174.728 158.078C174.744 158.065 174.759 158.052 174.774 158.039C174.782 158.032 174.789 158.026 174.797 158.02C174.8 158.016 174.806 158.012 174.808 158.01C174.813 158.005 174.819 158.001 167.005 148.894ZM152.28 142.354C147.195 144.695 142.709 146.629 138.544 148.248L147.243 170.616C151.984 168.772 156.933 166.633 162.317 164.155L152.28 142.354ZM146.327 110.094C145.684 124.998 145.426 135.776 145.33 142.864C145.282 146.408 145.274 149.029 145.278 150.782C145.28 151.659 145.286 152.318 145.29 152.768C145.293 152.992 145.295 153.164 145.297 153.285C145.298 153.345 145.299 153.392 145.299 153.427C145.3 153.444 145.3 153.458 145.3 153.469C145.3 153.474 145.3 153.479 145.3 153.482C145.301 153.484 145.301 153.486 145.301 153.488C145.301 153.488 145.301 153.489 145.301 153.49C145.301 153.491 145.301 153.492 157.298 153.255C169.296 153.017 169.296 153.018 169.296 153.019C169.296 153.019 169.296 153.02 169.296 153.02C169.296 153.021 169.296 153.021 169.296 153.022C169.296 153.022 169.296 153.022 169.296 153.021C169.296 153.019 169.296 153.014 169.296 153.006C169.295 152.989 169.295 152.959 169.294 152.917C169.293 152.831 169.291 152.694 169.289 152.504C169.285 152.123 169.28 151.532 169.278 150.722C169.274 149.102 169.281 146.61 169.328 143.191C169.421 136.353 169.672 125.81 170.304 111.128L146.327 110.094ZM152.524 74.6245C150.207 83.4027 146.95 95.6205 146.327 110.094L170.304 111.128C170.804 99.5265 173.4 89.5731 175.729 80.7495L152.524 74.6245ZM157.682 66.107C156.592 65.4339 155.706 64.3103 155.289 63.1658C154.985 62.3336 155.145 62.074 155.086 63.0238C155.029 63.929 154.819 65.3014 154.352 67.3829C153.89 69.4426 153.276 71.7736 152.524 74.6245L175.729 80.7495C177.08 75.6323 178.717 69.6381 179.038 64.5289C179.382 59.065 178.397 50.6936 170.296 45.6892L157.682 66.107ZM138.413 91.4547C149.742 95.4114 149.741 95.4128 149.741 95.414C149.741 95.4142 149.74 95.4153 149.74 95.4157C149.74 95.4165 149.74 95.4166 149.74 95.4161C149.741 95.4152 149.742 95.4117 149.744 95.4058C149.748 95.394 149.756 95.3723 149.767 95.3412C149.789 95.2789 149.824 95.1788 149.873 95.0435C149.97 94.7729 150.119 94.3625 150.316 93.8342C150.709 92.7761 151.289 91.2535 152.019 89.4402C153.493 85.7778 155.517 81.0896 157.796 76.6918C160.192 72.0698 162.411 68.683 164.075 66.9522C164.93 66.0637 164.872 66.4303 163.827 66.8042C162.217 67.3807 159.768 67.3958 157.682 66.107L170.296 45.6892C165.504 42.7289 160.227 42.6015 155.738 44.2084C151.816 45.6127 148.829 48.1826 146.779 50.3141C142.634 54.6234 139.134 60.5435 136.489 65.6464C133.728 70.9735 131.386 76.4281 129.756 80.4772C128.933 82.5197 128.276 84.2451 127.82 85.471C127.592 86.0847 127.414 86.5753 127.29 86.9202C127.227 87.0927 127.179 87.229 127.145 87.3262C127.127 87.3747 127.114 87.4136 127.104 87.4423C127.098 87.4567 127.094 87.4685 127.091 87.4778C127.089 87.4824 127.088 87.4864 127.087 87.4898C127.086 87.4914 127.086 87.4935 127.085 87.4943C127.085 87.4962 127.084 87.4979 138.413 91.4547ZM125.908 73.8403L126.418 91.7949L150.408 91.1144L149.899 73.1598L125.908 73.8403ZM125.996 71.4498C125.971 71.922 125.946 72.3923 125.921 72.8594L149.887 74.1407C149.911 73.6761 149.936 73.2079 149.962 72.7354L125.996 71.4498ZM132.399 34.1813C129.427 34.1404 127.261 32.6412 126.193 31.4384C125.385 30.5286 125.342 29.9836 125.578 30.7083C126.043 32.1327 126.523 35.0324 126.755 39.6575C127.205 48.6618 126.588 60.4266 125.996 71.4498L149.962 72.7354C150.532 62.1015 151.25 48.9669 150.725 38.4582C150.468 33.3268 149.882 27.8167 148.392 23.2564C147.651 20.9887 146.408 18.0577 144.139 15.5029C141.611 12.6552 137.723 10.2523 132.73 10.1836L132.399 34.1813ZM134.432 51.6174C135.736 43.7153 136.748 37.7274 137.973 33.6633C138.6 31.5818 138.986 31.0717 138.824 31.2989C138.541 31.693 136.434 34.2368 132.399 34.1813L132.73 10.1836C125.982 10.0907 121.585 14.1526 119.315 17.3195C117.166 20.3195 115.868 23.8369 114.994 26.7368C113.216 32.6355 111.954 40.4258 110.752 47.711L134.432 51.6174ZM129.344 77.4451C131.62 68.7167 133.139 59.4562 134.432 51.6174L110.752 47.711C109.426 55.7502 108.072 63.908 106.121 71.388L129.344 77.4451ZM97.5543 25.6588C93.7388 27.0359 90.7286 25.4207 89.8603 24.7802C89.2599 24.3374 89.4969 24.3115 90.3608 25.6968C91.9941 28.3161 93.9883 32.8776 96.103 39.0294C100.245 51.0776 103.889 66.3419 105.963 76.7595L129.501 72.0736C127.316 61.0958 123.424 44.6811 118.799 31.2274C116.531 24.6283 113.835 17.983 110.726 12.9976C109.218 10.5805 107.071 7.65257 104.106 5.4655C100.873 3.08076 95.5168 0.878845 89.4065 3.08421L97.5543 25.6588ZM109.54 79.3621C106.963 69.025 103.691 53.4289 102.182 40.2285C101.417 33.5337 101.184 28.0933 101.506 24.4469C101.672 22.5761 101.928 21.903 101.899 21.9725C101.865 22.0552 101.622 22.6272 100.984 23.3555C100.296 24.1406 99.1662 25.077 97.5544 25.6588L89.4065 3.08423C83.7674 5.11955 81.01 9.69754 79.7359 12.7643C78.4246 15.9204 77.8644 19.342 77.5998 22.3312C77.0623 28.4049 77.5135 35.7461 78.3374 42.9541C80.0069 57.5591 83.532 74.2529 86.2519 85.1662L109.54 79.3621ZM72.1529 59.4274C76.4993 68.7799 81.9106 80.5257 88.1291 89.2364L107.662 75.2919C103.008 68.7727 98.5565 59.295 93.9174 49.3127L72.1529 59.4274ZM71.3309 41.0567C69.6161 41.9536 67.5441 42.2968 65.5324 41.9351C63.7581 41.6161 62.6875 40.871 62.3755 40.6349C61.9398 40.3053 62.3888 40.5401 63.6289 42.495C65.9799 46.201 68.6959 51.9885 72.1529 59.4274L93.9174 49.3127C90.7301 42.4543 87.2817 34.9773 83.895 29.6387C82.2663 27.0712 79.9532 23.8387 76.8554 21.4952C73.363 18.853 67.0285 16.2223 60.2074 19.7901L71.3309 41.0567ZM90.8811 81.629C85.2389 73.4313 79.8675 61.2812 76.9473 50.7342C75.4794 45.4327 74.8331 41.2471 74.8206 38.5893C74.8143 37.2368 74.9807 36.9302 74.8612 37.2782C74.7266 37.6703 73.9033 39.7112 71.3309 41.0567L60.2074 19.7901C55.5661 22.2177 53.2589 26.2901 52.1624 29.4829C51.0811 32.6316 50.8078 35.8949 50.8209 38.7014C50.8474 44.3616 52.0765 50.8503 53.8175 57.1384C57.3151 69.7706 63.695 84.4608 71.1112 95.236L90.8811 81.629ZM51.7205 80.5624C57.433 85.6282 65.1825 92.5258 74.5021 98.5235L87.4902 78.3415C79.9331 73.4782 73.465 67.7678 67.6442 62.6059L51.7205 80.5624ZM49.627 72.8047C46.6325 74.2906 44.056 73.69 43.3185 73.4572C42.6809 73.2559 42.6939 73.1284 43.5875 73.7416C44.3828 74.2873 45.4462 75.1178 46.8813 76.3309C48.3024 77.5321 49.8743 78.9252 51.7205 80.5624L67.6442 62.6059C64.2376 59.585 60.4919 56.2342 57.1662 53.9522C55.4938 52.8047 53.2093 51.4121 50.5435 50.5705C47.7777 49.6974 43.4422 49.0813 38.9588 51.3061L49.627 72.8047ZM77.904 99.6771C65.9183 86.8038 59.2431 77.0116 56.1941 70.717C55.4527 69.1864 54.9864 67.9855 54.71 67.101C54.4242 66.1862 54.4038 65.8074 54.4076 65.8726C54.4084 65.8854 54.481 66.8822 53.8784 68.3223C53.1826 69.9853 51.7717 71.7404 49.627 72.8047L38.9588 51.3061C31.312 55.1006 30.1881 62.8572 30.4492 67.2857C30.72 71.8757 32.4039 76.6567 34.5946 81.1794C39.0876 90.4551 47.496 102.238 60.3387 116.031L77.904 99.6771ZM97.9891 169.157C108.339 163.085 108.34 163.086 108.34 163.086C108.34 163.086 108.341 163.087 108.341 163.087C108.341 163.088 108.341 163.088 108.341 163.088C108.341 163.087 108.339 163.085 108.337 163.081C108.333 163.073 108.324 163.059 108.312 163.038C108.288 162.997 108.249 162.93 108.196 162.839C108.09 162.655 107.927 162.372 107.711 161.993C107.28 161.236 106.64 160.099 105.825 158.62C104.196 155.661 101.877 151.34 99.1533 145.961C93.6972 135.184 86.6705 120.256 80.3389 103.592L57.9037 112.116C64.6176 129.787 72.0248 145.51 77.7411 156.801C80.6042 162.456 83.0553 167.023 84.8007 170.194C85.6737 171.78 86.371 173.018 86.856 173.869C87.0986 174.295 87.2881 174.625 87.4201 174.853C87.4861 174.967 87.5377 175.056 87.5744 175.119C87.5927 175.15 87.6073 175.175 87.6181 175.194C87.6235 175.203 87.6279 175.211 87.6314 175.217C87.6331 175.22 87.6346 175.222 87.6359 175.224C87.6365 175.225 87.6373 175.227 87.6376 175.227C87.6383 175.228 87.6389 175.229 97.9891 169.157ZM113.519 155.206C108.618 156.024 103.256 156.657 96.9553 157.202L99.0228 181.112C105.728 180.533 111.755 179.833 117.47 178.879L113.519 155.206Z" fill="white" mask="url(#path-1-outside-1)"/>
<path d="M131.991 162.841C103.443 171.24 88.9661 170.039 88.9661 170.039L102.495 203.805C131.771 207.769 148.197 206.774 177.522 198.199L167.005 148.894C167.005 148.894 160.538 154.442 131.991 162.841Z" fill="#C0BFFF"/>
<path d="M114.863 120.241C114.863 120.241 118.265 96.4329 138.413 91.4546C138.413 91.4546 153.167 49.2121 163.989 55.8981C173.041 61.4902 159.591 81.0249 158.315 110.611C157.04 140.197 157.298 153.254 157.298 153.254M137.904 73.5C139.07 51.6764 140.827 22.2962 132.564 22.1824C124.302 22.0686 123.89 50.8089 117.732 74.4165C113.473 53.0211 102.659 11.0585 93.4804 14.3715C84.3014 17.6845 92.5994 61.0137 97.8957 82.2641C84.4198 63.3873 74.0447 26.0949 65.7691 30.4234C57.4936 34.7519 67.9378 69.4596 80.9962 88.4325C61.9145 76.1525 49.6319 59.4061 44.2929 62.0554C38.9539 64.7047 44.293 81.1873 69.1213 107.854C82.1668 142.189 97.9891 169.157 97.9891 169.157" stroke="black" stroke-width="4" stroke-linecap="round" stroke-linejoin="round"/>
<path d="M177.522 198.199L167.005 148.894C167.005 148.894 160.538 154.442 131.991 162.841C103.443 171.24 88.9661 170.039 88.9661 170.039L102.495 203.805" stroke="black" stroke-width="4" stroke-linecap="round" stroke-linejoin="round"/>
<path fill-rule="evenodd" clip-rule="evenodd" d="M26.461 120.72C26.0623 119.69 26.5741 118.532 27.6042 118.133C28.6344 117.735 29.7926 118.246 30.1913 119.277C32.198 124.461 34.0173 128.124 36.5565 131.241C39.0881 134.349 42.4327 137.032 47.6547 140.087C48.6082 140.644 48.929 141.869 48.3713 142.823C47.8136 143.776 46.5886 144.097 45.6351 143.539C40.1771 140.347 36.3961 137.377 33.4552 133.767C30.5219 130.166 28.5218 126.045 26.461 120.72ZM38.2201 113.853C37.8779 112.803 38.4519 111.674 39.5022 111.332C40.5524 110.99 41.6812 111.564 42.0233 112.614C43.2803 116.472 44.421 119.258 46.0952 121.807C47.7657 124.35 50.0363 126.76 53.6747 129.748C54.5283 130.449 54.6521 131.709 53.9512 132.563C53.2502 133.417 51.9899 133.54 51.1363 132.839C47.3151 129.702 44.7201 126.999 42.7519 124.003C40.7872 121.012 39.5158 117.83 38.2201 113.853ZM187.522 31.9336C186.534 31.4397 185.333 31.8401 184.839 32.8281C184.345 33.816 184.746 35.0174 185.734 35.5113C189.779 37.5342 192.54 40.2152 194.103 44.1979C195.701 48.2707 196.132 53.921 195.009 62.0212C194.857 63.1153 195.621 64.1253 196.715 64.277C197.809 64.4288 198.819 63.6649 198.971 62.5708C200.137 54.1635 199.784 47.725 197.826 42.7368C195.834 37.6586 192.268 34.3066 187.522 31.9336ZM178.408 38.209C177.417 37.72 176.218 38.1265 175.729 39.1169C175.24 40.1073 175.647 41.3067 176.637 41.7957C180.722 43.8127 183.275 46.0948 184.71 48.9806C186.158 51.8931 186.613 55.7127 185.901 61.0916C185.756 62.1866 186.527 63.1918 187.622 63.3367C188.717 63.4816 189.722 62.7114 189.867 61.6164C190.633 55.8248 190.232 51.1033 188.291 47.1999C186.338 43.2699 182.97 40.4615 178.408 38.209Z" fill="black"/>
</svg>
